G04*
G04 #@! TF.GenerationSoftware,Altium Limited,Altium Designer,22.11.1 (43)*
G04*
G04 Layer_Physical_Order=1*
G04 Layer_Color=16776960*
%FSLAX43Y43*%
%MOMM*%
G71*
G04*
G04 #@! TF.SameCoordinates,DA80ED52-15D1-4FE9-8C50-4387EF9C4813*
G04*
G04*
G04 #@! TF.FilePolarity,Positive*
G04*
G01*
G75*
%ADD15C,0.200*%
G04:AMPARAMS|DCode=16|XSize=0.7mm|YSize=0.35mm|CornerRadius=0.044mm|HoleSize=0mm|Usage=FLASHONLY|Rotation=0.000|XOffset=0mm|YOffset=0mm|HoleType=Round|Shape=RoundedRectangle|*
%AMROUNDEDRECTD16*
21,1,0.700,0.263,0,0,0.0*
21,1,0.613,0.350,0,0,0.0*
1,1,0.088,0.306,-0.131*
1,1,0.088,-0.306,-0.131*
1,1,0.088,-0.306,0.131*
1,1,0.088,0.306,0.131*
%
%ADD16ROUNDEDRECTD16*%
G04:AMPARAMS|DCode=17|XSize=0.35mm|YSize=0.6mm|CornerRadius=0.044mm|HoleSize=0mm|Usage=FLASHONLY|Rotation=300.000|XOffset=0mm|YOffset=0mm|HoleType=Round|Shape=RoundedRectangle|*
%AMROUNDEDRECTD17*
21,1,0.350,0.513,0,0,300.0*
21,1,0.263,0.600,0,0,300.0*
1,1,0.088,-0.156,-0.242*
1,1,0.088,-0.288,-0.014*
1,1,0.088,0.156,0.242*
1,1,0.088,0.288,0.014*
%
%ADD17ROUNDEDRECTD17*%
G04:AMPARAMS|DCode=18|XSize=0.35mm|YSize=0.6mm|CornerRadius=0.044mm|HoleSize=0mm|Usage=FLASHONLY|Rotation=0.000|XOffset=0mm|YOffset=0mm|HoleType=Round|Shape=RoundedRectangle|*
%AMROUNDEDRECTD18*
21,1,0.350,0.513,0,0,0.0*
21,1,0.263,0.600,0,0,0.0*
1,1,0.088,0.131,-0.256*
1,1,0.088,-0.131,-0.256*
1,1,0.088,-0.131,0.256*
1,1,0.088,0.131,0.256*
%
%ADD18ROUNDEDRECTD18*%
G04:AMPARAMS|DCode=19|XSize=0.35mm|YSize=0.6mm|CornerRadius=0.044mm|HoleSize=0mm|Usage=FLASHONLY|Rotation=60.000|XOffset=0mm|YOffset=0mm|HoleType=Round|Shape=RoundedRectangle|*
%AMROUNDEDRECTD19*
21,1,0.350,0.513,0,0,60.0*
21,1,0.263,0.600,0,0,60.0*
1,1,0.088,0.288,-0.014*
1,1,0.088,0.156,-0.242*
1,1,0.088,-0.288,0.014*
1,1,0.088,-0.156,0.242*
%
%ADD19ROUNDEDRECTD19*%
G36*
X1771Y-795D02*
X1942Y-499D01*
X1950Y-484D01*
X1955Y-451D01*
X1946Y-418D01*
X1925Y-391D01*
X1911Y-383D01*
X1911Y-383D01*
X1463Y-124D01*
X1447Y-115D01*
X1410Y-110D01*
X1374Y-120D01*
X1344Y-142D01*
X1335Y-159D01*
X1335Y-159D01*
X1168Y-447D01*
X1771Y-795D01*
D02*
G37*
G36*
X1175Y451D02*
X1372Y108D01*
X1379Y97D01*
X1399Y82D01*
X1423Y75D01*
X1449Y79D01*
X1460Y85D01*
X1460D01*
X1925Y354D01*
X1938Y361D01*
X1956Y384D01*
X1964Y413D01*
X1960Y442D01*
X1952Y455D01*
X1952Y455D01*
X1760Y789D01*
X1175Y451D01*
D02*
G37*
D15*
X920Y1325D02*
G03*
X375Y1551I-545J-545D01*
G01*
Y-1550D02*
G03*
X898Y-1333I0J740D01*
G01*
X-906Y-1330D02*
G03*
X-375Y-1550I531J531D01*
G01*
X-1552Y418D02*
G03*
X-1727Y-3I421J-421D01*
G01*
D02*
G03*
X-1563Y-398I559J0D01*
G01*
X-375Y1551D02*
G03*
X-920Y1325I0J-771D01*
G01*
X1521Y449D02*
X1547D01*
X1850Y752D02*
Y1689D01*
X1635Y1789D02*
X1750D01*
X1547Y449D02*
X1850Y752D01*
X1750Y1789D02*
X1850Y1689D01*
X1513Y-444D02*
X1543D01*
X1846Y-1690D02*
Y-747D01*
X1635Y-1790D02*
X1746D01*
X1543Y-444D02*
X1846Y-747D01*
X1746Y-1790D02*
X1846Y-1690D01*
X920Y1325D02*
X1146Y1099D01*
X898Y-1333D02*
X1138Y-1094D01*
X-1138Y-1098D02*
X-906Y-1330D01*
X-1552Y418D02*
X-1533Y437D01*
X-1563Y-398D02*
X-1513Y-449D01*
X-1158Y1086D02*
X-920Y1325D01*
D16*
X1646Y-1820D02*
D03*
Y1822D02*
D03*
D17*
X1521Y449D02*
D03*
X1146Y1099D02*
D03*
X-1138Y-1098D02*
D03*
X-1513Y-449D02*
D03*
D18*
X-375Y1551D02*
D03*
X375D02*
D03*
X-375Y-1550D02*
D03*
X375D02*
D03*
D19*
X-1158Y1086D02*
D03*
X-1533Y437D02*
D03*
X1513Y-444D02*
D03*
X1138Y-1094D02*
D03*
M02*
