G04*
G04 #@! TF.GenerationSoftware,Altium Limited,Altium Designer,22.11.1 (43)*
G04*
G04 Layer_Color=65535*
%FSLAX43Y43*%
%MOMM*%
G71*
G04*
G04 #@! TF.SameCoordinates,DA80ED52-15D1-4FE9-8C50-4387EF9C4813*
G04*
G04*
G04 #@! TF.FilePolarity,Positive*
G04*
G01*
G75*
%ADD10C,0.150*%
G36*
X-1489Y-1834D02*
Y-1834D01*
Y-1836D01*
Y-1840D01*
Y-1844D01*
Y-1849D01*
X-1489Y-1855D01*
Y-1861D01*
X-1490Y-1869D01*
X-1491Y-1883D01*
X-1492Y-1898D01*
X-1493Y-1906D01*
X-1494Y-1913D01*
X-1495Y-1919D01*
X-1496Y-1925D01*
Y-1925D01*
X-1496Y-1926D01*
X-1497Y-1927D01*
X-1497Y-1929D01*
X-1499Y-1934D01*
X-1502Y-1941D01*
X-1507Y-1948D01*
X-1512Y-1956D01*
X-1518Y-1963D01*
X-1526Y-1970D01*
X-1527D01*
X-1527Y-1971D01*
X-1529Y-1971D01*
X-1531Y-1973D01*
X-1533Y-1974D01*
X-1536Y-1975D01*
X-1539Y-1977D01*
X-1543Y-1978D01*
X-1552Y-1982D01*
X-1563Y-1984D01*
X-1575Y-1986D01*
X-1588Y-1987D01*
X-1592D01*
X-1595Y-1987D01*
X-1599D01*
X-1602Y-1986D01*
X-1612Y-1985D01*
X-1621Y-1983D01*
X-1632Y-1981D01*
X-1642Y-1977D01*
X-1651Y-1973D01*
X-1652D01*
X-1652Y-1972D01*
X-1655Y-1970D01*
X-1659Y-1967D01*
X-1664Y-1962D01*
X-1669Y-1957D01*
X-1675Y-1950D01*
X-1680Y-1942D01*
X-1684Y-1933D01*
Y-1932D01*
X-1685Y-1931D01*
X-1685Y-1930D01*
X-1685Y-1927D01*
X-1686Y-1924D01*
X-1687Y-1920D01*
X-1688Y-1916D01*
X-1689Y-1911D01*
X-1690Y-1904D01*
X-1691Y-1897D01*
X-1691Y-1890D01*
X-1692Y-1881D01*
X-1693Y-1871D01*
X-1693Y-1860D01*
X-1694Y-1849D01*
Y-1836D01*
Y-1669D01*
X-1642D01*
Y-1839D01*
Y-1839D01*
Y-1841D01*
Y-1842D01*
Y-1845D01*
Y-1848D01*
Y-1852D01*
X-1642Y-1860D01*
Y-1868D01*
X-1641Y-1877D01*
X-1641Y-1884D01*
Y-1887D01*
X-1640Y-1890D01*
Y-1891D01*
X-1639Y-1893D01*
X-1638Y-1897D01*
X-1637Y-1902D01*
X-1635Y-1907D01*
X-1632Y-1912D01*
X-1629Y-1917D01*
X-1624Y-1922D01*
X-1624Y-1922D01*
X-1622Y-1924D01*
X-1619Y-1926D01*
X-1615Y-1927D01*
X-1610Y-1929D01*
X-1604Y-1931D01*
X-1597Y-1933D01*
X-1590Y-1933D01*
X-1587D01*
X-1583Y-1933D01*
X-1579Y-1932D01*
X-1575Y-1931D01*
X-1570Y-1930D01*
X-1565Y-1928D01*
X-1561Y-1925D01*
X-1560Y-1925D01*
X-1559Y-1924D01*
X-1557Y-1922D01*
X-1555Y-1920D01*
X-1552Y-1916D01*
X-1550Y-1913D01*
X-1547Y-1908D01*
X-1545Y-1903D01*
Y-1902D01*
X-1544Y-1901D01*
Y-1899D01*
X-1544Y-1896D01*
X-1544Y-1894D01*
X-1543Y-1890D01*
X-1543Y-1887D01*
X-1542Y-1882D01*
X-1542Y-1877D01*
Y-1871D01*
X-1541Y-1865D01*
X-1541Y-1859D01*
Y-1851D01*
Y-1842D01*
Y-1669D01*
X-1489D01*
Y-1834D01*
D02*
G37*
G36*
X-1249Y-1722D02*
X-1325D01*
Y-1982D01*
X-1377D01*
Y-1722D01*
X-1453D01*
Y-1669D01*
X-1249D01*
Y-1722D01*
D02*
G37*
G36*
X-1852Y-1665D02*
X-1849D01*
X-1844Y-1666D01*
X-1839Y-1667D01*
X-1832Y-1668D01*
X-1826Y-1669D01*
X-1819Y-1672D01*
X-1812Y-1675D01*
X-1804Y-1678D01*
X-1797Y-1682D01*
X-1790Y-1687D01*
X-1782Y-1693D01*
X-1775Y-1699D01*
X-1768Y-1706D01*
X-1768Y-1707D01*
X-1767Y-1708D01*
X-1765Y-1711D01*
X-1763Y-1714D01*
X-1760Y-1718D01*
X-1757Y-1724D01*
X-1754Y-1730D01*
X-1751Y-1737D01*
X-1747Y-1745D01*
X-1745Y-1754D01*
X-1741Y-1764D01*
X-1739Y-1774D01*
X-1737Y-1786D01*
X-1735Y-1798D01*
X-1734Y-1812D01*
X-1734Y-1826D01*
Y-1827D01*
Y-1829D01*
Y-1833D01*
X-1734Y-1839D01*
X-1734Y-1845D01*
X-1735Y-1853D01*
X-1737Y-1861D01*
X-1738Y-1871D01*
X-1740Y-1880D01*
X-1742Y-1890D01*
X-1746Y-1900D01*
X-1749Y-1910D01*
X-1753Y-1920D01*
X-1759Y-1930D01*
X-1764Y-1939D01*
X-1771Y-1948D01*
X-1771Y-1949D01*
X-1772Y-1950D01*
X-1774Y-1952D01*
X-1777Y-1954D01*
X-1780Y-1957D01*
X-1783Y-1961D01*
X-1788Y-1964D01*
X-1794Y-1968D01*
X-1800Y-1971D01*
X-1806Y-1975D01*
X-1813Y-1978D01*
X-1821Y-1981D01*
X-1829Y-1983D01*
X-1839Y-1985D01*
X-1848Y-1987D01*
X-1858Y-1987D01*
X-1860D01*
X-1863Y-1987D01*
X-1867D01*
X-1872Y-1986D01*
X-1877Y-1985D01*
X-1883Y-1984D01*
X-1890Y-1982D01*
X-1897Y-1980D01*
X-1904Y-1978D01*
X-1911Y-1975D01*
X-1918Y-1971D01*
X-1925Y-1966D01*
X-1933Y-1961D01*
X-1939Y-1956D01*
X-1946Y-1949D01*
X-1946Y-1948D01*
X-1947Y-1947D01*
X-1949Y-1944D01*
X-1951Y-1941D01*
X-1954Y-1936D01*
X-1957Y-1931D01*
X-1961Y-1924D01*
X-1964Y-1917D01*
X-1967Y-1909D01*
X-1971Y-1900D01*
X-1974Y-1890D01*
X-1977Y-1879D01*
X-1979Y-1868D01*
X-1981Y-1855D01*
X-1982Y-1842D01*
X-1982Y-1828D01*
Y-1828D01*
Y-1826D01*
Y-1822D01*
X-1982Y-1819D01*
Y-1814D01*
X-1981Y-1809D01*
X-1981Y-1802D01*
X-1980Y-1796D01*
X-1978Y-1781D01*
X-1975Y-1766D01*
X-1972Y-1750D01*
X-1969Y-1743D01*
X-1966Y-1736D01*
Y-1736D01*
X-1965Y-1735D01*
X-1964Y-1733D01*
X-1963Y-1730D01*
X-1961Y-1727D01*
X-1960Y-1724D01*
X-1955Y-1716D01*
X-1948Y-1707D01*
X-1941Y-1698D01*
X-1932Y-1690D01*
X-1923Y-1682D01*
X-1923D01*
X-1922Y-1681D01*
X-1920Y-1681D01*
X-1918Y-1680D01*
X-1916Y-1678D01*
X-1912Y-1677D01*
X-1909Y-1675D01*
X-1905Y-1673D01*
X-1895Y-1670D01*
X-1884Y-1667D01*
X-1872Y-1665D01*
X-1858Y-1664D01*
X-1856D01*
X-1852Y-1665D01*
D02*
G37*
G36*
X-1671Y1663D02*
X-1724D01*
X-1827Y1866D01*
Y1663D01*
X-1875D01*
Y1975D01*
X-1825D01*
X-1719Y1766D01*
Y1975D01*
X-1671D01*
Y1663D01*
D02*
G37*
G36*
X-1925D02*
X-1977D01*
Y1975D01*
X-1925D01*
Y1663D01*
D02*
G37*
%LPC*%
G36*
X-1858Y-1718D02*
X-1861D01*
X-1863Y-1719D01*
X-1866Y-1719D01*
X-1869Y-1720D01*
X-1876Y-1722D01*
X-1884Y-1725D01*
X-1888Y-1727D01*
X-1893Y-1730D01*
X-1897Y-1733D01*
X-1901Y-1736D01*
X-1906Y-1740D01*
X-1909Y-1745D01*
Y-1745D01*
X-1910Y-1746D01*
X-1911Y-1748D01*
X-1912Y-1750D01*
X-1914Y-1753D01*
X-1915Y-1756D01*
X-1917Y-1760D01*
X-1919Y-1765D01*
X-1921Y-1770D01*
X-1923Y-1776D01*
X-1924Y-1783D01*
X-1925Y-1790D01*
X-1927Y-1798D01*
X-1928Y-1807D01*
X-1928Y-1816D01*
X-1929Y-1826D01*
Y-1826D01*
Y-1828D01*
Y-1831D01*
X-1928Y-1834D01*
Y-1839D01*
X-1928Y-1844D01*
X-1927Y-1850D01*
X-1926Y-1856D01*
X-1924Y-1869D01*
X-1920Y-1882D01*
X-1915Y-1895D01*
X-1912Y-1901D01*
X-1908Y-1906D01*
X-1908Y-1907D01*
X-1907Y-1907D01*
X-1906Y-1908D01*
X-1905Y-1910D01*
X-1900Y-1914D01*
X-1894Y-1920D01*
X-1887Y-1925D01*
X-1878Y-1929D01*
X-1874Y-1931D01*
X-1869Y-1932D01*
X-1863Y-1933D01*
X-1858Y-1933D01*
X-1855D01*
X-1853Y-1933D01*
X-1850Y-1932D01*
X-1847Y-1932D01*
X-1840Y-1930D01*
X-1832Y-1926D01*
X-1828Y-1924D01*
X-1824Y-1922D01*
X-1820Y-1919D01*
X-1815Y-1915D01*
X-1811Y-1911D01*
X-1808Y-1907D01*
X-1807Y-1906D01*
X-1807Y-1905D01*
X-1806Y-1904D01*
X-1804Y-1902D01*
X-1803Y-1899D01*
X-1801Y-1895D01*
X-1799Y-1891D01*
X-1797Y-1886D01*
X-1796Y-1881D01*
X-1794Y-1875D01*
X-1792Y-1868D01*
X-1790Y-1861D01*
X-1789Y-1853D01*
X-1788Y-1844D01*
X-1787Y-1835D01*
Y-1825D01*
Y-1824D01*
Y-1822D01*
Y-1820D01*
X-1788Y-1816D01*
Y-1811D01*
X-1788Y-1806D01*
X-1789Y-1801D01*
X-1790Y-1794D01*
X-1792Y-1781D01*
X-1796Y-1768D01*
X-1801Y-1755D01*
X-1803Y-1750D01*
X-1807Y-1745D01*
Y-1744D01*
X-1808Y-1744D01*
X-1809Y-1743D01*
X-1811Y-1741D01*
X-1815Y-1737D01*
X-1820Y-1731D01*
X-1828Y-1727D01*
X-1837Y-1723D01*
X-1842Y-1721D01*
X-1847Y-1719D01*
X-1852Y-1719D01*
X-1858Y-1718D01*
D02*
G37*
%LPD*%
D10*
X809Y1313D02*
X1133Y1501D01*
X-730Y1366D02*
X-729Y1741D01*
X-1875Y225D02*
X-1551Y38D01*
X-1125Y-1500D02*
X-801Y-1313D01*
X729Y-1740D02*
X730Y-1366D01*
X1531Y-45D02*
X1855Y-232D01*
M02*
