G04*
G04 #@! TF.GenerationSoftware,Altium Limited,Altium Designer,22.11.1 (43)*
G04*
G04 Layer_Color=32896*
%FSLAX43Y43*%
%MOMM*%
G71*
G04*
G04 #@! TF.SameCoordinates,DA80ED52-15D1-4FE9-8C50-4387EF9C4813*
G04*
G04*
G04 #@! TF.FilePolarity,Positive*
G04*
G01*
G75*
G36*
X1884Y1852D02*
X1695D01*
Y1784D01*
X1695Y1772D01*
X1694Y1760D01*
X1693Y1750D01*
X1692Y1740D01*
X1691Y1732D01*
X1689Y1724D01*
X1688Y1717D01*
X1686Y1711D01*
X1685Y1706D01*
X1684Y1702D01*
X1683Y1699D01*
X1682Y1696D01*
X1681Y1694D01*
X1681Y1693D01*
X1674Y1682D01*
X1667Y1671D01*
X1658Y1662D01*
X1650Y1655D01*
X1642Y1649D01*
X1635Y1645D01*
X1631Y1642D01*
X1630Y1641D01*
X1630D01*
X1615Y1634D01*
X1600Y1629D01*
X1584Y1625D01*
X1570Y1622D01*
X1558Y1621D01*
X1552D01*
X1548Y1620D01*
X1544D01*
X1541D01*
X1539D01*
X1539D01*
X1517Y1621D01*
X1498Y1624D01*
X1482Y1628D01*
X1468Y1632D01*
X1461Y1635D01*
X1456Y1637D01*
X1451Y1639D01*
X1448Y1641D01*
X1445Y1642D01*
X1443Y1644D01*
X1442Y1645D01*
X1441D01*
X1428Y1654D01*
X1417Y1664D01*
X1409Y1674D01*
X1402Y1683D01*
X1398Y1692D01*
X1394Y1699D01*
X1392Y1703D01*
X1392Y1704D01*
Y1704D01*
X1390Y1710D01*
X1389Y1716D01*
X1388Y1722D01*
X1387Y1730D01*
X1386Y1745D01*
X1385Y1762D01*
X1384Y1777D01*
Y1934D01*
X1884D01*
Y1852D01*
D02*
G37*
G36*
X1661Y1566D02*
X1681Y1564D01*
X1701Y1561D01*
X1720Y1557D01*
X1737Y1553D01*
X1752Y1549D01*
X1767Y1543D01*
X1780Y1537D01*
X1791Y1532D01*
X1802Y1527D01*
X1811Y1523D01*
X1817Y1518D01*
X1823Y1515D01*
X1828Y1512D01*
X1830Y1510D01*
X1831Y1509D01*
X1842Y1500D01*
X1851Y1489D01*
X1859Y1479D01*
X1866Y1468D01*
X1872Y1457D01*
X1877Y1447D01*
X1881Y1436D01*
X1885Y1426D01*
X1887Y1416D01*
X1889Y1407D01*
X1890Y1399D01*
X1891Y1393D01*
Y1387D01*
X1892Y1383D01*
Y1379D01*
X1891Y1367D01*
X1890Y1356D01*
X1886Y1336D01*
X1880Y1317D01*
X1876Y1309D01*
X1873Y1302D01*
X1869Y1295D01*
X1865Y1289D01*
X1862Y1284D01*
X1859Y1280D01*
X1857Y1277D01*
X1855Y1274D01*
X1854Y1273D01*
X1854Y1272D01*
X1845Y1264D01*
X1837Y1257D01*
X1818Y1244D01*
X1797Y1233D01*
X1777Y1224D01*
X1768Y1220D01*
X1759Y1217D01*
X1751Y1215D01*
X1744Y1213D01*
X1738Y1211D01*
X1734Y1210D01*
X1731Y1209D01*
X1730D01*
X1699Y1290D01*
X1719Y1294D01*
X1735Y1300D01*
X1749Y1305D01*
X1760Y1311D01*
X1769Y1316D01*
X1775Y1321D01*
X1779Y1324D01*
X1780Y1325D01*
X1788Y1333D01*
X1795Y1343D01*
X1800Y1353D01*
X1803Y1362D01*
X1804Y1369D01*
X1805Y1376D01*
X1806Y1379D01*
Y1381D01*
X1805Y1389D01*
X1804Y1396D01*
X1800Y1411D01*
X1793Y1423D01*
X1786Y1433D01*
X1779Y1442D01*
X1772Y1448D01*
X1768Y1452D01*
X1767Y1453D01*
X1766D01*
X1758Y1458D01*
X1749Y1462D01*
X1739Y1466D01*
X1729Y1469D01*
X1706Y1474D01*
X1684Y1477D01*
X1674Y1478D01*
X1664Y1479D01*
X1655Y1480D01*
X1648D01*
X1641Y1481D01*
X1637D01*
X1633D01*
X1633D01*
X1616D01*
X1601Y1479D01*
X1587Y1478D01*
X1574Y1476D01*
X1562Y1474D01*
X1551Y1472D01*
X1542Y1469D01*
X1533Y1466D01*
X1526Y1464D01*
X1519Y1461D01*
X1514Y1459D01*
X1510Y1457D01*
X1507Y1455D01*
X1504Y1454D01*
X1503Y1452D01*
X1502D01*
X1495Y1447D01*
X1489Y1441D01*
X1484Y1435D01*
X1480Y1429D01*
X1472Y1416D01*
X1468Y1404D01*
X1465Y1394D01*
X1463Y1386D01*
X1463Y1383D01*
Y1379D01*
X1463Y1367D01*
X1466Y1356D01*
X1469Y1347D01*
X1474Y1339D01*
X1477Y1333D01*
X1481Y1328D01*
X1484Y1325D01*
X1485Y1324D01*
X1494Y1316D01*
X1503Y1309D01*
X1514Y1303D01*
X1524Y1299D01*
X1533Y1296D01*
X1540Y1294D01*
X1543Y1293D01*
X1545D01*
X1546Y1292D01*
X1547D01*
X1523Y1210D01*
X1511Y1213D01*
X1500Y1217D01*
X1490Y1220D01*
X1480Y1224D01*
X1471Y1228D01*
X1463Y1232D01*
X1456Y1237D01*
X1449Y1240D01*
X1443Y1244D01*
X1438Y1248D01*
X1434Y1251D01*
X1430Y1254D01*
X1428Y1256D01*
X1426Y1257D01*
X1424Y1258D01*
Y1259D01*
X1416Y1268D01*
X1409Y1277D01*
X1402Y1287D01*
X1396Y1296D01*
X1392Y1306D01*
X1388Y1316D01*
X1382Y1334D01*
X1380Y1342D01*
X1378Y1350D01*
X1378Y1356D01*
X1377Y1362D01*
X1376Y1367D01*
Y1374D01*
X1377Y1390D01*
X1379Y1404D01*
X1382Y1418D01*
X1386Y1431D01*
X1391Y1443D01*
X1396Y1454D01*
X1402Y1464D01*
X1407Y1473D01*
X1413Y1481D01*
X1419Y1489D01*
X1424Y1495D01*
X1429Y1500D01*
X1433Y1503D01*
X1436Y1506D01*
X1438Y1508D01*
X1439Y1509D01*
X1453Y1519D01*
X1468Y1528D01*
X1484Y1535D01*
X1500Y1542D01*
X1517Y1548D01*
X1533Y1552D01*
X1550Y1556D01*
X1566Y1559D01*
X1581Y1561D01*
X1594Y1563D01*
X1607Y1565D01*
X1618Y1566D01*
X1626D01*
X1633Y1566D01*
X1637D01*
X1638D01*
X1638D01*
X1661Y1566D01*
D02*
G37*
G36*
X1884Y969D02*
X1883Y956D01*
Y944D01*
X1882Y933D01*
X1882Y923D01*
Y915D01*
X1881Y908D01*
X1880Y902D01*
X1879Y897D01*
Y893D01*
X1879Y889D01*
Y887D01*
X1878Y886D01*
Y884D01*
X1873Y871D01*
X1867Y860D01*
X1859Y849D01*
X1851Y840D01*
X1844Y832D01*
X1837Y826D01*
X1833Y823D01*
X1832Y822D01*
X1831D01*
X1817Y813D01*
X1801Y806D01*
X1786Y802D01*
X1771Y798D01*
X1758Y797D01*
X1753Y796D01*
X1748D01*
X1744Y795D01*
X1741D01*
X1740D01*
X1739D01*
X1723Y796D01*
X1708Y798D01*
X1695Y802D01*
X1684Y806D01*
X1675Y809D01*
X1668Y813D01*
X1664Y815D01*
X1663Y816D01*
X1652Y824D01*
X1642Y834D01*
X1635Y843D01*
X1629Y852D01*
X1624Y861D01*
X1621Y868D01*
X1619Y872D01*
X1618Y873D01*
Y874D01*
X1613Y864D01*
X1606Y856D01*
X1599Y849D01*
X1592Y843D01*
X1585Y838D01*
X1580Y835D01*
X1577Y832D01*
X1576Y832D01*
X1565Y826D01*
X1553Y822D01*
X1542Y819D01*
X1531Y818D01*
X1523Y816D01*
X1516Y815D01*
X1511D01*
X1511D01*
X1510D01*
X1496Y816D01*
X1482Y818D01*
X1471Y821D01*
X1460Y825D01*
X1452Y829D01*
X1446Y832D01*
X1442Y834D01*
X1440Y835D01*
X1429Y842D01*
X1420Y849D01*
X1413Y857D01*
X1407Y864D01*
X1403Y871D01*
X1399Y876D01*
X1398Y879D01*
X1397Y880D01*
X1395Y886D01*
X1392Y892D01*
X1389Y907D01*
X1387Y922D01*
X1386Y938D01*
X1385Y952D01*
X1384Y959D01*
Y1139D01*
X1884D01*
Y969D01*
D02*
G37*
G36*
X1663Y583D02*
X1686Y582D01*
X1709Y580D01*
X1729Y578D01*
X1747Y576D01*
X1763Y572D01*
X1777Y569D01*
X1791Y565D01*
X1802Y563D01*
X1811Y559D01*
X1819Y556D01*
X1825Y554D01*
X1831Y551D01*
X1834Y549D01*
X1836Y548D01*
X1837Y548D01*
X1846Y540D01*
X1855Y533D01*
X1862Y525D01*
X1868Y517D01*
X1874Y509D01*
X1879Y501D01*
X1882Y493D01*
X1885Y486D01*
X1889Y472D01*
X1890Y466D01*
X1891Y461D01*
Y457D01*
X1892Y454D01*
Y451D01*
X1891Y440D01*
X1890Y429D01*
X1887Y420D01*
X1883Y411D01*
X1874Y395D01*
X1864Y381D01*
X1854Y370D01*
X1849Y365D01*
X1845Y361D01*
X1841Y359D01*
X1838Y356D01*
X1837Y356D01*
X1836Y355D01*
X1824Y348D01*
X1811Y342D01*
X1797Y338D01*
X1781Y333D01*
X1748Y327D01*
X1715Y322D01*
X1700Y321D01*
X1685Y320D01*
X1672Y319D01*
X1661D01*
X1651Y318D01*
X1644D01*
X1641D01*
X1639D01*
X1638D01*
X1638D01*
X1612Y319D01*
X1589Y319D01*
X1567Y322D01*
X1548Y324D01*
X1529Y327D01*
X1513Y330D01*
X1499Y333D01*
X1485Y336D01*
X1474Y340D01*
X1465Y343D01*
X1457Y346D01*
X1451Y349D01*
X1446Y351D01*
X1443Y353D01*
X1440Y354D01*
X1440Y355D01*
X1429Y362D01*
X1421Y370D01*
X1413Y378D01*
X1406Y386D01*
X1401Y394D01*
X1397Y401D01*
X1393Y410D01*
X1390Y417D01*
X1386Y431D01*
X1384Y437D01*
X1383Y442D01*
X1383Y446D01*
Y452D01*
X1383Y463D01*
X1385Y473D01*
X1388Y483D01*
X1392Y492D01*
X1400Y508D01*
X1411Y522D01*
X1422Y533D01*
X1426Y537D01*
X1431Y541D01*
X1434Y544D01*
X1437Y546D01*
X1439Y547D01*
X1440Y548D01*
X1451Y554D01*
X1465Y560D01*
X1479Y565D01*
X1494Y568D01*
X1527Y575D01*
X1559Y580D01*
X1575Y581D01*
X1590Y582D01*
X1603Y582D01*
X1614Y583D01*
X1624Y584D01*
X1631D01*
X1633D01*
X1635D01*
X1636D01*
X1637D01*
X1663Y583D01*
D02*
G37*
G36*
X1884Y171D02*
X1788D01*
Y249D01*
X1884D01*
Y171D01*
D02*
G37*
G36*
X1585Y65D02*
X1574Y45D01*
X1562Y28D01*
X1550Y13D01*
X1545Y7D01*
X1539Y1D01*
X1534Y-4D01*
X1531Y-8D01*
X1527Y-12D01*
X1525Y-14D01*
X1523Y-15D01*
X1522Y-16D01*
X1884D01*
Y-95D01*
X1383D01*
Y-31D01*
X1399Y-25D01*
X1414Y-18D01*
X1427Y-10D01*
X1438Y-1D01*
X1448Y6D01*
X1455Y12D01*
X1460Y16D01*
X1460Y17D01*
X1461Y18D01*
X1473Y31D01*
X1482Y44D01*
X1491Y55D01*
X1497Y65D01*
X1502Y74D01*
X1505Y80D01*
X1507Y84D01*
X1508Y85D01*
Y86D01*
X1595D01*
X1585Y65D01*
D02*
G37*
G36*
X1884Y-307D02*
X1788D01*
Y-228D01*
X1884D01*
Y-307D01*
D02*
G37*
G36*
X1663Y-372D02*
X1686Y-373D01*
X1709Y-375D01*
X1729Y-377D01*
X1747Y-379D01*
X1763Y-383D01*
X1777Y-386D01*
X1791Y-389D01*
X1802Y-392D01*
X1811Y-396D01*
X1819Y-399D01*
X1825Y-401D01*
X1831Y-404D01*
X1834Y-406D01*
X1836Y-407D01*
X1837Y-407D01*
X1846Y-415D01*
X1855Y-422D01*
X1862Y-430D01*
X1868Y-438D01*
X1874Y-446D01*
X1879Y-454D01*
X1882Y-462D01*
X1885Y-469D01*
X1889Y-483D01*
X1890Y-489D01*
X1891Y-494D01*
Y-498D01*
X1892Y-501D01*
Y-504D01*
X1891Y-515D01*
X1890Y-525D01*
X1887Y-535D01*
X1883Y-544D01*
X1874Y-560D01*
X1864Y-574D01*
X1854Y-585D01*
X1849Y-590D01*
X1845Y-594D01*
X1841Y-596D01*
X1838Y-599D01*
X1837Y-599D01*
X1836Y-600D01*
X1824Y-607D01*
X1811Y-613D01*
X1797Y-617D01*
X1781Y-622D01*
X1748Y-628D01*
X1715Y-633D01*
X1700Y-634D01*
X1685Y-635D01*
X1672Y-636D01*
X1661D01*
X1651Y-637D01*
X1644D01*
X1641D01*
X1639D01*
X1638D01*
X1638D01*
X1612Y-636D01*
X1589Y-636D01*
X1567Y-633D01*
X1548Y-631D01*
X1529Y-628D01*
X1513Y-625D01*
X1499Y-622D01*
X1485Y-619D01*
X1474Y-615D01*
X1465Y-612D01*
X1457Y-609D01*
X1451Y-606D01*
X1446Y-604D01*
X1443Y-602D01*
X1440Y-601D01*
X1440Y-600D01*
X1429Y-593D01*
X1421Y-585D01*
X1413Y-577D01*
X1406Y-569D01*
X1401Y-561D01*
X1397Y-554D01*
X1393Y-545D01*
X1390Y-538D01*
X1386Y-524D01*
X1384Y-518D01*
X1383Y-513D01*
X1383Y-509D01*
Y-503D01*
X1383Y-492D01*
X1385Y-482D01*
X1388Y-472D01*
X1392Y-463D01*
X1400Y-447D01*
X1411Y-433D01*
X1422Y-422D01*
X1426Y-418D01*
X1431Y-414D01*
X1434Y-411D01*
X1437Y-409D01*
X1439Y-408D01*
X1440Y-407D01*
X1451Y-401D01*
X1465Y-395D01*
X1479Y-390D01*
X1494Y-387D01*
X1527Y-380D01*
X1559Y-375D01*
X1575Y-374D01*
X1590Y-373D01*
X1603Y-373D01*
X1614Y-372D01*
X1624Y-371D01*
X1631D01*
X1633D01*
X1635D01*
X1636D01*
X1637D01*
X1663Y-372D01*
D02*
G37*
G36*
X-1392Y1764D02*
X-1392Y1751D01*
Y1739D01*
X-1393Y1728D01*
X-1394Y1719D01*
Y1710D01*
X-1395Y1703D01*
X-1395Y1697D01*
X-1396Y1692D01*
Y1688D01*
X-1397Y1685D01*
Y1682D01*
X-1398Y1681D01*
Y1679D01*
X-1402Y1667D01*
X-1409Y1655D01*
X-1416Y1644D01*
X-1424Y1635D01*
X-1432Y1628D01*
X-1438Y1622D01*
X-1443Y1619D01*
X-1443Y1617D01*
X-1444D01*
X-1459Y1608D01*
X-1475Y1602D01*
X-1490Y1597D01*
X-1505Y1594D01*
X-1517Y1592D01*
X-1523Y1591D01*
X-1528D01*
X-1531Y1591D01*
X-1534D01*
X-1536D01*
X-1537D01*
X-1553Y1591D01*
X-1568Y1594D01*
X-1580Y1597D01*
X-1591Y1601D01*
X-1601Y1605D01*
X-1608Y1608D01*
X-1611Y1611D01*
X-1613Y1611D01*
X-1624Y1619D01*
X-1633Y1629D01*
X-1641Y1639D01*
X-1647Y1648D01*
X-1651Y1656D01*
X-1655Y1663D01*
X-1656Y1668D01*
X-1657Y1668D01*
Y1669D01*
X-1663Y1659D01*
X-1670Y1651D01*
X-1677Y1645D01*
X-1684Y1638D01*
X-1690Y1634D01*
X-1696Y1630D01*
X-1698Y1628D01*
X-1700Y1627D01*
X-1711Y1622D01*
X-1723Y1617D01*
X-1734Y1614D01*
X-1744Y1613D01*
X-1752Y1611D01*
X-1760Y1611D01*
X-1764D01*
X-1765D01*
X-1766D01*
X-1780Y1611D01*
X-1793Y1614D01*
X-1805Y1617D01*
X-1815Y1620D01*
X-1823Y1624D01*
X-1830Y1627D01*
X-1834Y1629D01*
X-1835Y1630D01*
X-1846Y1637D01*
X-1855Y1645D01*
X-1863Y1653D01*
X-1868Y1659D01*
X-1873Y1666D01*
X-1877Y1671D01*
X-1878Y1674D01*
X-1879Y1676D01*
X-1881Y1682D01*
X-1883Y1687D01*
X-1886Y1702D01*
X-1888Y1718D01*
X-1890Y1733D01*
X-1891Y1747D01*
X-1891Y1754D01*
Y1934D01*
X-1392D01*
Y1764D01*
D02*
G37*
G36*
X-1616Y1537D02*
X-1594Y1535D01*
X-1574Y1532D01*
X-1556Y1529D01*
X-1539Y1524D01*
X-1523Y1519D01*
X-1509Y1514D01*
X-1495Y1508D01*
X-1484Y1503D01*
X-1474Y1498D01*
X-1465Y1492D01*
X-1458Y1488D01*
X-1452Y1484D01*
X-1448Y1481D01*
X-1446Y1480D01*
X-1445Y1479D01*
X-1434Y1469D01*
X-1425Y1458D01*
X-1417Y1447D01*
X-1409Y1435D01*
X-1404Y1424D01*
X-1398Y1412D01*
X-1395Y1401D01*
X-1391Y1390D01*
X-1389Y1379D01*
X-1387Y1370D01*
X-1386Y1361D01*
X-1384Y1353D01*
Y1347D01*
X-1384Y1342D01*
Y1339D01*
X-1384Y1322D01*
X-1387Y1308D01*
X-1390Y1293D01*
X-1393Y1279D01*
X-1398Y1267D01*
X-1404Y1256D01*
X-1409Y1245D01*
X-1415Y1236D01*
X-1421Y1227D01*
X-1426Y1220D01*
X-1432Y1214D01*
X-1436Y1209D01*
X-1440Y1204D01*
X-1443Y1201D01*
X-1445Y1200D01*
X-1446Y1199D01*
X-1460Y1189D01*
X-1475Y1180D01*
X-1490Y1172D01*
X-1506Y1165D01*
X-1523Y1159D01*
X-1539Y1154D01*
X-1554Y1150D01*
X-1570Y1147D01*
X-1585Y1145D01*
X-1598Y1143D01*
X-1611Y1141D01*
X-1621Y1141D01*
X-1630Y1140D01*
X-1636D01*
X-1640D01*
X-1642D01*
X-1664Y1141D01*
X-1685Y1142D01*
X-1705Y1145D01*
X-1724Y1149D01*
X-1741Y1152D01*
X-1756Y1158D01*
X-1770Y1162D01*
X-1783Y1167D01*
X-1795Y1172D01*
X-1804Y1177D01*
X-1813Y1183D01*
X-1820Y1186D01*
X-1826Y1190D01*
X-1829Y1193D01*
X-1832Y1194D01*
X-1832Y1195D01*
X-1844Y1206D01*
X-1854Y1217D01*
X-1863Y1229D01*
X-1871Y1241D01*
X-1877Y1253D01*
X-1883Y1265D01*
X-1888Y1277D01*
X-1891Y1288D01*
X-1894Y1298D01*
X-1896Y1308D01*
X-1897Y1316D01*
X-1899Y1324D01*
Y1330D01*
X-1900Y1335D01*
Y1339D01*
X-1898Y1361D01*
X-1895Y1381D01*
X-1891Y1398D01*
X-1885Y1414D01*
X-1883Y1420D01*
X-1880Y1426D01*
X-1877Y1431D01*
X-1875Y1435D01*
X-1874Y1438D01*
X-1872Y1441D01*
X-1871Y1442D01*
Y1443D01*
X-1859Y1458D01*
X-1846Y1472D01*
X-1832Y1483D01*
X-1817Y1493D01*
X-1805Y1501D01*
X-1799Y1504D01*
X-1795Y1506D01*
X-1790Y1509D01*
X-1787Y1510D01*
X-1786Y1512D01*
X-1785D01*
X-1774Y1516D01*
X-1762Y1520D01*
X-1738Y1526D01*
X-1713Y1531D01*
X-1690Y1534D01*
X-1679Y1535D01*
X-1669Y1536D01*
X-1660Y1537D01*
X-1653D01*
X-1647Y1537D01*
X-1642D01*
X-1639D01*
X-1638D01*
X-1616Y1537D01*
D02*
G37*
G36*
X-1392Y999D02*
X-1786D01*
X-1392Y918D01*
Y839D01*
X-1786Y756D01*
X-1392D01*
Y679D01*
X-1891D01*
Y804D01*
X-1549Y878D01*
X-1891Y953D01*
Y1076D01*
X-1392D01*
Y999D01*
D02*
G37*
G36*
X-1613Y455D02*
X-1589Y455D01*
X-1567Y452D01*
X-1547Y450D01*
X-1528Y448D01*
X-1512Y444D01*
X-1498Y441D01*
X-1485Y438D01*
X-1474Y435D01*
X-1464Y431D01*
X-1457Y428D01*
X-1450Y426D01*
X-1445Y423D01*
X-1442Y421D01*
X-1440Y421D01*
X-1439Y420D01*
X-1429Y412D01*
X-1421Y405D01*
X-1413Y397D01*
X-1407Y389D01*
X-1401Y381D01*
X-1397Y373D01*
X-1393Y365D01*
X-1390Y358D01*
X-1387Y344D01*
X-1385Y338D01*
X-1384Y333D01*
Y329D01*
X-1384Y326D01*
Y323D01*
X-1384Y312D01*
X-1386Y302D01*
X-1389Y292D01*
X-1392Y283D01*
X-1401Y267D01*
X-1412Y253D01*
X-1422Y242D01*
X-1426Y237D01*
X-1431Y234D01*
X-1435Y231D01*
X-1438Y228D01*
X-1439Y228D01*
X-1440Y227D01*
X-1452Y220D01*
X-1465Y214D01*
X-1479Y210D01*
X-1494Y206D01*
X-1528Y199D01*
X-1560Y194D01*
X-1576Y193D01*
X-1591Y192D01*
X-1603Y191D01*
X-1615D01*
X-1625Y190D01*
X-1632D01*
X-1634D01*
X-1636D01*
X-1637D01*
X-1638D01*
X-1664Y191D01*
X-1687Y191D01*
X-1709Y194D01*
X-1728Y196D01*
X-1747Y199D01*
X-1763Y202D01*
X-1777Y205D01*
X-1790Y208D01*
X-1801Y212D01*
X-1811Y215D01*
X-1818Y218D01*
X-1825Y221D01*
X-1830Y223D01*
X-1833Y225D01*
X-1835Y226D01*
X-1836Y227D01*
X-1846Y234D01*
X-1854Y242D01*
X-1863Y250D01*
X-1869Y258D01*
X-1874Y266D01*
X-1879Y274D01*
X-1883Y282D01*
X-1885Y289D01*
X-1890Y303D01*
X-1891Y309D01*
X-1892Y314D01*
X-1893Y318D01*
Y324D01*
X-1892Y335D01*
X-1891Y345D01*
X-1888Y355D01*
X-1884Y364D01*
X-1875Y380D01*
X-1865Y394D01*
X-1854Y405D01*
X-1849Y410D01*
X-1845Y413D01*
X-1841Y416D01*
X-1838Y418D01*
X-1837Y419D01*
X-1836Y420D01*
X-1824Y427D01*
X-1811Y432D01*
X-1797Y437D01*
X-1781Y441D01*
X-1749Y447D01*
X-1716Y452D01*
X-1701Y453D01*
X-1686Y454D01*
X-1673Y455D01*
X-1662Y455D01*
X-1652Y456D01*
X-1645D01*
X-1642D01*
X-1640D01*
X-1639D01*
X-1639D01*
X-1613Y455D01*
D02*
G37*
G36*
X-1392Y43D02*
X-1488D01*
Y121D01*
X-1392D01*
Y43D01*
D02*
G37*
G36*
X-1690Y-63D02*
X-1701Y-83D01*
X-1714Y-100D01*
X-1726Y-115D01*
X-1731Y-121D01*
X-1736Y-127D01*
X-1741Y-132D01*
X-1745Y-136D01*
X-1749Y-140D01*
X-1751Y-142D01*
X-1752Y-143D01*
X-1753Y-144D01*
X-1392D01*
Y-223D01*
X-1893D01*
Y-159D01*
X-1877Y-153D01*
X-1862Y-146D01*
X-1849Y-137D01*
X-1837Y-129D01*
X-1828Y-122D01*
X-1820Y-116D01*
X-1816Y-112D01*
X-1815Y-111D01*
X-1815Y-110D01*
X-1803Y-97D01*
X-1793Y-84D01*
X-1785Y-73D01*
X-1778Y-63D01*
X-1774Y-54D01*
X-1770Y-48D01*
X-1769Y-44D01*
X-1768Y-43D01*
Y-42D01*
X-1681D01*
X-1690Y-63D01*
D02*
G37*
G36*
X-1392Y-435D02*
X-1488D01*
Y-356D01*
X-1392D01*
Y-435D01*
D02*
G37*
G36*
X-1613Y-500D02*
X-1589Y-500D01*
X-1567Y-503D01*
X-1547Y-505D01*
X-1528Y-507D01*
X-1512Y-511D01*
X-1498Y-514D01*
X-1485Y-517D01*
X-1474Y-520D01*
X-1464Y-524D01*
X-1457Y-527D01*
X-1450Y-529D01*
X-1445Y-532D01*
X-1442Y-534D01*
X-1440Y-534D01*
X-1439Y-535D01*
X-1429Y-543D01*
X-1421Y-550D01*
X-1413Y-558D01*
X-1407Y-566D01*
X-1401Y-574D01*
X-1397Y-582D01*
X-1393Y-590D01*
X-1390Y-597D01*
X-1387Y-611D01*
X-1385Y-617D01*
X-1384Y-622D01*
Y-626D01*
X-1384Y-629D01*
Y-632D01*
X-1384Y-643D01*
X-1386Y-653D01*
X-1389Y-663D01*
X-1392Y-672D01*
X-1401Y-688D01*
X-1412Y-702D01*
X-1422Y-713D01*
X-1426Y-718D01*
X-1431Y-721D01*
X-1435Y-724D01*
X-1438Y-727D01*
X-1439Y-727D01*
X-1440Y-728D01*
X-1452Y-735D01*
X-1465Y-741D01*
X-1479Y-745D01*
X-1494Y-749D01*
X-1528Y-756D01*
X-1560Y-761D01*
X-1576Y-762D01*
X-1591Y-763D01*
X-1603Y-764D01*
X-1615D01*
X-1625Y-765D01*
X-1632D01*
X-1634D01*
X-1636D01*
X-1637D01*
X-1638D01*
X-1664Y-764D01*
X-1687Y-763D01*
X-1709Y-761D01*
X-1728Y-759D01*
X-1747Y-756D01*
X-1763Y-753D01*
X-1777Y-750D01*
X-1790Y-747D01*
X-1801Y-743D01*
X-1811Y-740D01*
X-1818Y-737D01*
X-1825Y-734D01*
X-1830Y-732D01*
X-1833Y-729D01*
X-1835Y-729D01*
X-1836Y-728D01*
X-1846Y-721D01*
X-1854Y-713D01*
X-1863Y-705D01*
X-1869Y-697D01*
X-1874Y-689D01*
X-1879Y-681D01*
X-1883Y-673D01*
X-1885Y-666D01*
X-1890Y-652D01*
X-1891Y-646D01*
X-1892Y-641D01*
X-1893Y-637D01*
Y-631D01*
X-1892Y-620D01*
X-1891Y-610D01*
X-1888Y-600D01*
X-1884Y-591D01*
X-1875Y-575D01*
X-1865Y-561D01*
X-1854Y-550D01*
X-1849Y-545D01*
X-1845Y-542D01*
X-1841Y-539D01*
X-1838Y-537D01*
X-1837Y-536D01*
X-1836Y-535D01*
X-1824Y-528D01*
X-1811Y-523D01*
X-1797Y-518D01*
X-1781Y-514D01*
X-1749Y-508D01*
X-1716Y-503D01*
X-1701Y-502D01*
X-1686Y-501D01*
X-1673Y-500D01*
X-1662Y-500D01*
X-1652Y-499D01*
X-1645D01*
X-1642D01*
X-1640D01*
X-1639D01*
X-1639D01*
X-1613Y-500D01*
D02*
G37*
%LPC*%
G36*
X1611Y1852D02*
X1468D01*
Y1794D01*
X1469Y1787D01*
Y1779D01*
X1470Y1767D01*
X1471Y1758D01*
X1472Y1752D01*
X1474Y1747D01*
X1474Y1745D01*
Y1744D01*
X1477Y1738D01*
X1480Y1733D01*
X1485Y1729D01*
X1488Y1724D01*
X1492Y1721D01*
X1495Y1719D01*
X1497Y1718D01*
X1498Y1717D01*
X1505Y1713D01*
X1512Y1710D01*
X1519Y1709D01*
X1525Y1707D01*
X1531Y1707D01*
X1536Y1706D01*
X1539D01*
X1540D01*
X1549Y1707D01*
X1557Y1707D01*
X1564Y1710D01*
X1570Y1711D01*
X1575Y1713D01*
X1579Y1716D01*
X1581Y1716D01*
X1582Y1717D01*
X1587Y1721D01*
X1593Y1726D01*
X1596Y1730D01*
X1600Y1735D01*
X1602Y1738D01*
X1604Y1741D01*
X1605Y1744D01*
Y1744D01*
X1607Y1752D01*
X1609Y1761D01*
X1610Y1771D01*
X1610Y1781D01*
X1611Y1791D01*
Y1852D01*
D02*
G37*
G36*
X1582Y1056D02*
X1468D01*
Y977D01*
X1468Y969D01*
Y962D01*
X1469Y955D01*
Y945D01*
X1470Y941D01*
Y937D01*
X1471Y933D01*
X1471Y931D01*
Y930D01*
X1473Y925D01*
X1476Y920D01*
X1482Y913D01*
X1485Y910D01*
X1487Y908D01*
X1488Y907D01*
X1489Y906D01*
X1494Y903D01*
X1500Y900D01*
X1511Y897D01*
X1516Y897D01*
X1520Y896D01*
X1523D01*
X1524D01*
X1533Y897D01*
X1541Y898D01*
X1548Y900D01*
X1553Y902D01*
X1558Y905D01*
X1561Y906D01*
X1563Y908D01*
X1564Y908D01*
X1568Y913D01*
X1573Y919D01*
X1576Y924D01*
X1578Y929D01*
X1579Y934D01*
X1580Y937D01*
X1581Y940D01*
Y944D01*
X1582Y947D01*
Y965D01*
X1582Y976D01*
Y1056D01*
D02*
G37*
G36*
X1800D02*
X1666D01*
Y971D01*
X1667Y963D01*
Y956D01*
X1668Y944D01*
X1669Y934D01*
X1670Y928D01*
X1672Y923D01*
X1672Y920D01*
Y920D01*
X1675Y914D01*
X1678Y908D01*
X1682Y903D01*
X1686Y900D01*
X1689Y897D01*
X1692Y894D01*
X1694Y893D01*
X1695Y892D01*
X1701Y888D01*
X1707Y886D01*
X1714Y884D01*
X1720Y883D01*
X1726Y882D01*
X1730Y881D01*
X1734D01*
X1735D01*
X1743Y882D01*
X1751Y883D01*
X1757Y884D01*
X1763Y886D01*
X1768Y888D01*
X1771Y890D01*
X1773Y891D01*
X1774Y891D01*
X1779Y895D01*
X1783Y900D01*
X1787Y903D01*
X1790Y907D01*
X1792Y911D01*
X1794Y914D01*
X1794Y915D01*
Y916D01*
X1795Y919D01*
X1796Y922D01*
X1797Y932D01*
X1798Y942D01*
X1799Y954D01*
X1800Y963D01*
Y1056D01*
D02*
G37*
G36*
X1656Y501D02*
X1648D01*
X1643D01*
X1639D01*
X1638D01*
X1617D01*
X1599Y500D01*
X1582Y500D01*
X1567Y499D01*
X1554Y498D01*
X1542Y497D01*
X1532Y496D01*
X1523Y495D01*
X1516Y493D01*
X1509Y492D01*
X1504Y491D01*
X1500Y490D01*
X1497Y489D01*
X1495Y489D01*
X1494Y488D01*
X1483Y483D01*
X1476Y477D01*
X1470Y470D01*
X1466Y464D01*
X1464Y459D01*
X1463Y455D01*
X1463Y452D01*
Y451D01*
X1464Y443D01*
X1468Y435D01*
X1472Y429D01*
X1478Y424D01*
X1484Y420D01*
X1488Y417D01*
X1492Y415D01*
X1494Y415D01*
X1500Y412D01*
X1508Y410D01*
X1518Y408D01*
X1529Y407D01*
X1540Y405D01*
X1553Y404D01*
X1577Y402D01*
X1589D01*
X1600Y401D01*
X1610D01*
X1619Y401D01*
X1627D01*
X1633D01*
X1636D01*
X1638D01*
X1658D01*
X1677Y401D01*
X1693Y402D01*
X1708Y403D01*
X1721Y404D01*
X1733Y405D01*
X1743Y407D01*
X1752Y407D01*
X1760Y409D01*
X1766Y410D01*
X1771Y412D01*
X1775Y412D01*
X1778Y413D01*
X1780Y414D01*
X1781Y415D01*
X1782D01*
X1792Y420D01*
X1800Y426D01*
X1805Y432D01*
X1808Y438D01*
X1811Y443D01*
X1811Y447D01*
X1812Y450D01*
Y451D01*
X1811Y459D01*
X1808Y466D01*
X1803Y473D01*
X1797Y478D01*
X1791Y483D01*
X1786Y486D01*
X1783Y487D01*
X1782Y488D01*
X1775Y490D01*
X1767Y492D01*
X1757Y494D01*
X1746Y495D01*
X1735Y497D01*
X1723Y498D01*
X1698Y500D01*
X1686D01*
X1675Y500D01*
X1665D01*
X1656Y501D01*
D02*
G37*
G36*
Y-454D02*
X1648D01*
X1643D01*
X1639D01*
X1638D01*
X1617D01*
X1599Y-455D01*
X1582Y-455D01*
X1567Y-456D01*
X1554Y-457D01*
X1542Y-458D01*
X1532Y-459D01*
X1523Y-460D01*
X1516Y-462D01*
X1509Y-463D01*
X1504Y-464D01*
X1500Y-465D01*
X1497Y-466D01*
X1495Y-466D01*
X1494Y-467D01*
X1483Y-472D01*
X1476Y-478D01*
X1470Y-485D01*
X1466Y-491D01*
X1464Y-496D01*
X1463Y-500D01*
X1463Y-503D01*
Y-504D01*
X1464Y-512D01*
X1468Y-520D01*
X1472Y-525D01*
X1478Y-531D01*
X1484Y-535D01*
X1488Y-538D01*
X1492Y-540D01*
X1494Y-540D01*
X1500Y-543D01*
X1508Y-545D01*
X1518Y-547D01*
X1529Y-548D01*
X1540Y-550D01*
X1553Y-551D01*
X1577Y-553D01*
X1589D01*
X1600Y-554D01*
X1610D01*
X1619Y-554D01*
X1627D01*
X1633D01*
X1636D01*
X1638D01*
X1658D01*
X1677Y-554D01*
X1693Y-553D01*
X1708Y-552D01*
X1721Y-551D01*
X1733Y-550D01*
X1743Y-548D01*
X1752Y-548D01*
X1760Y-546D01*
X1766Y-545D01*
X1771Y-543D01*
X1775Y-543D01*
X1778Y-542D01*
X1780Y-541D01*
X1781Y-540D01*
X1782D01*
X1792Y-535D01*
X1800Y-529D01*
X1805Y-523D01*
X1808Y-517D01*
X1811Y-512D01*
X1811Y-508D01*
X1812Y-505D01*
Y-504D01*
X1811Y-496D01*
X1808Y-489D01*
X1803Y-482D01*
X1797Y-477D01*
X1791Y-472D01*
X1786Y-469D01*
X1783Y-468D01*
X1782Y-467D01*
X1775Y-465D01*
X1767Y-463D01*
X1757Y-461D01*
X1746Y-460D01*
X1735Y-458D01*
X1723Y-457D01*
X1698Y-455D01*
X1686D01*
X1675Y-455D01*
X1665D01*
X1656Y-454D01*
D02*
G37*
G36*
X-1693Y1852D02*
X-1808D01*
Y1772D01*
X-1807Y1764D01*
Y1757D01*
X-1806Y1750D01*
Y1740D01*
X-1806Y1736D01*
Y1733D01*
X-1805Y1728D01*
X-1804Y1726D01*
Y1725D01*
X-1803Y1720D01*
X-1800Y1716D01*
X-1794Y1708D01*
X-1791Y1705D01*
X-1789Y1703D01*
X-1787Y1702D01*
X-1786Y1702D01*
X-1781Y1698D01*
X-1775Y1696D01*
X-1764Y1693D01*
X-1759Y1692D01*
X-1755Y1691D01*
X-1752D01*
X-1752D01*
X-1743Y1692D01*
X-1735Y1693D01*
X-1728Y1695D01*
X-1722Y1697D01*
X-1718Y1700D01*
X-1715Y1702D01*
X-1713Y1703D01*
X-1712Y1704D01*
X-1707Y1708D01*
X-1703Y1714D01*
X-1700Y1719D01*
X-1698Y1724D01*
X-1696Y1729D01*
X-1696Y1733D01*
X-1695Y1736D01*
Y1739D01*
X-1694Y1742D01*
Y1761D01*
X-1693Y1771D01*
Y1852D01*
D02*
G37*
G36*
X-1476D02*
X-1610D01*
Y1767D01*
X-1609Y1758D01*
Y1752D01*
X-1608Y1739D01*
X-1607Y1730D01*
X-1605Y1723D01*
X-1604Y1719D01*
X-1603Y1716D01*
Y1715D01*
X-1600Y1709D01*
X-1597Y1703D01*
X-1594Y1699D01*
X-1590Y1695D01*
X-1586Y1692D01*
X-1584Y1690D01*
X-1582Y1688D01*
X-1581Y1687D01*
X-1575Y1684D01*
X-1568Y1681D01*
X-1562Y1679D01*
X-1555Y1678D01*
X-1550Y1677D01*
X-1545Y1676D01*
X-1542D01*
X-1541D01*
X-1533Y1677D01*
X-1525Y1678D01*
X-1518Y1679D01*
X-1513Y1682D01*
X-1508Y1684D01*
X-1505Y1685D01*
X-1503Y1686D01*
X-1502Y1687D01*
X-1497Y1690D01*
X-1492Y1695D01*
X-1489Y1699D01*
X-1486Y1702D01*
X-1483Y1706D01*
X-1482Y1709D01*
X-1481Y1710D01*
Y1711D01*
X-1480Y1714D01*
X-1480Y1718D01*
X-1478Y1727D01*
X-1477Y1738D01*
X-1477Y1749D01*
X-1476Y1758D01*
Y1852D01*
D02*
G37*
G36*
X-1633Y1452D02*
X-1638D01*
X-1641D01*
X-1642D01*
X-1657Y1451D01*
X-1672Y1450D01*
X-1686Y1449D01*
X-1698Y1447D01*
X-1710Y1444D01*
X-1721Y1442D01*
X-1730Y1439D01*
X-1739Y1436D01*
X-1747Y1433D01*
X-1753Y1430D01*
X-1758Y1428D01*
X-1763Y1426D01*
X-1766Y1424D01*
X-1769Y1422D01*
X-1770Y1421D01*
X-1771D01*
X-1778Y1415D01*
X-1785Y1408D01*
X-1790Y1401D01*
X-1795Y1394D01*
X-1800Y1387D01*
X-1803Y1381D01*
X-1808Y1367D01*
X-1811Y1356D01*
X-1812Y1351D01*
X-1812Y1347D01*
X-1813Y1344D01*
Y1339D01*
X-1812Y1330D01*
X-1812Y1321D01*
X-1809Y1313D01*
X-1806Y1305D01*
X-1800Y1291D01*
X-1792Y1279D01*
X-1784Y1270D01*
X-1778Y1263D01*
X-1775Y1260D01*
X-1772Y1259D01*
X-1772Y1257D01*
X-1771D01*
X-1763Y1251D01*
X-1754Y1247D01*
X-1733Y1239D01*
X-1713Y1233D01*
X-1692Y1229D01*
X-1681Y1228D01*
X-1673Y1227D01*
X-1664Y1226D01*
X-1657D01*
X-1651Y1226D01*
X-1647D01*
X-1644D01*
X-1643D01*
X-1627D01*
X-1612Y1227D01*
X-1599Y1228D01*
X-1585Y1231D01*
X-1574Y1233D01*
X-1563Y1236D01*
X-1554Y1239D01*
X-1545Y1242D01*
X-1537Y1245D01*
X-1531Y1248D01*
X-1525Y1251D01*
X-1520Y1253D01*
X-1517Y1255D01*
X-1514Y1257D01*
X-1513Y1257D01*
X-1512Y1258D01*
X-1505Y1264D01*
X-1498Y1271D01*
X-1493Y1277D01*
X-1488Y1284D01*
X-1484Y1291D01*
X-1480Y1297D01*
X-1475Y1311D01*
X-1472Y1322D01*
X-1472Y1326D01*
X-1471Y1330D01*
X-1470Y1334D01*
Y1339D01*
X-1471Y1347D01*
X-1472Y1356D01*
X-1474Y1364D01*
X-1477Y1371D01*
X-1483Y1385D01*
X-1492Y1397D01*
X-1500Y1407D01*
X-1506Y1413D01*
X-1509Y1415D01*
X-1511Y1418D01*
X-1512Y1418D01*
X-1513Y1419D01*
X-1522Y1425D01*
X-1531Y1430D01*
X-1551Y1438D01*
X-1573Y1444D01*
X-1594Y1447D01*
X-1603Y1449D01*
X-1612Y1450D01*
X-1620Y1451D01*
X-1628D01*
X-1633Y1452D01*
D02*
G37*
G36*
X-1619Y373D02*
X-1628D01*
X-1633D01*
X-1636D01*
X-1638D01*
X-1659D01*
X-1677Y373D01*
X-1693Y372D01*
X-1708Y371D01*
X-1721Y370D01*
X-1733Y369D01*
X-1744Y368D01*
X-1752Y367D01*
X-1760Y365D01*
X-1766Y364D01*
X-1772Y363D01*
X-1775Y362D01*
X-1778Y361D01*
X-1781Y361D01*
X-1782Y360D01*
X-1792Y355D01*
X-1800Y349D01*
X-1806Y342D01*
X-1809Y336D01*
X-1812Y331D01*
X-1812Y327D01*
X-1813Y324D01*
Y323D01*
X-1812Y315D01*
X-1808Y308D01*
X-1803Y302D01*
X-1798Y296D01*
X-1792Y292D01*
X-1787Y289D01*
X-1783Y288D01*
X-1782Y287D01*
X-1775Y285D01*
X-1767Y282D01*
X-1758Y280D01*
X-1747Y279D01*
X-1735Y277D01*
X-1723Y276D01*
X-1698Y274D01*
X-1687D01*
X-1676Y274D01*
X-1665D01*
X-1656Y273D01*
X-1649D01*
X-1643D01*
X-1639D01*
X-1638D01*
X-1617D01*
X-1599Y274D01*
X-1582Y274D01*
X-1568Y275D01*
X-1554Y276D01*
X-1543Y277D01*
X-1532Y279D01*
X-1523Y279D01*
X-1516Y281D01*
X-1509Y282D01*
X-1504Y284D01*
X-1500Y285D01*
X-1497Y285D01*
X-1495Y286D01*
X-1494Y287D01*
X-1494D01*
X-1483Y292D01*
X-1476Y298D01*
X-1471Y304D01*
X-1467Y310D01*
X-1465Y315D01*
X-1464Y319D01*
X-1463Y322D01*
Y323D01*
X-1465Y331D01*
X-1468Y339D01*
X-1473Y345D01*
X-1479Y350D01*
X-1484Y355D01*
X-1489Y358D01*
X-1492Y359D01*
X-1494Y360D01*
X-1500Y362D01*
X-1509Y364D01*
X-1518Y366D01*
X-1529Y367D01*
X-1540Y369D01*
X-1553Y370D01*
X-1577Y372D01*
X-1589D01*
X-1600Y373D01*
X-1611D01*
X-1619Y373D01*
D02*
G37*
G36*
Y-582D02*
X-1628D01*
X-1633D01*
X-1636D01*
X-1638D01*
X-1659D01*
X-1677Y-582D01*
X-1693Y-583D01*
X-1708Y-584D01*
X-1721Y-585D01*
X-1733Y-586D01*
X-1744Y-587D01*
X-1752Y-588D01*
X-1760Y-590D01*
X-1766Y-591D01*
X-1772Y-592D01*
X-1775Y-593D01*
X-1778Y-594D01*
X-1781Y-594D01*
X-1782Y-595D01*
X-1792Y-600D01*
X-1800Y-606D01*
X-1806Y-613D01*
X-1809Y-619D01*
X-1812Y-624D01*
X-1812Y-628D01*
X-1813Y-631D01*
Y-632D01*
X-1812Y-640D01*
X-1808Y-647D01*
X-1803Y-653D01*
X-1798Y-659D01*
X-1792Y-663D01*
X-1787Y-666D01*
X-1783Y-667D01*
X-1782Y-668D01*
X-1775Y-670D01*
X-1767Y-673D01*
X-1758Y-675D01*
X-1747Y-676D01*
X-1735Y-678D01*
X-1723Y-678D01*
X-1698Y-681D01*
X-1687D01*
X-1676Y-681D01*
X-1665D01*
X-1656Y-682D01*
X-1649D01*
X-1643D01*
X-1639D01*
X-1638D01*
X-1617D01*
X-1599Y-681D01*
X-1582Y-681D01*
X-1568Y-680D01*
X-1554Y-679D01*
X-1543Y-678D01*
X-1532Y-676D01*
X-1523Y-676D01*
X-1516Y-674D01*
X-1509Y-673D01*
X-1504Y-671D01*
X-1500Y-670D01*
X-1497Y-670D01*
X-1495Y-669D01*
X-1494Y-668D01*
X-1494D01*
X-1483Y-663D01*
X-1476Y-657D01*
X-1471Y-651D01*
X-1467Y-645D01*
X-1465Y-640D01*
X-1464Y-636D01*
X-1463Y-633D01*
Y-632D01*
X-1465Y-624D01*
X-1468Y-616D01*
X-1473Y-610D01*
X-1479Y-605D01*
X-1484Y-600D01*
X-1489Y-597D01*
X-1492Y-596D01*
X-1494Y-595D01*
X-1500Y-593D01*
X-1509Y-591D01*
X-1518Y-589D01*
X-1529Y-588D01*
X-1540Y-586D01*
X-1553Y-585D01*
X-1577Y-583D01*
X-1589D01*
X-1600Y-582D01*
X-1611D01*
X-1619Y-582D01*
D02*
G37*
%LPD*%
M02*
