G04*
G04 #@! TF.GenerationSoftware,Altium Limited,Altium Designer,22.11.1 (43)*
G04*
G04 Layer_Color=32896*
%FSLAX43Y43*%
%MOMM*%
G71*
G04*
G04 #@! TF.SameCoordinates,EC2B1266-DD17-45FD-89DE-53E199C55580*
G04*
G04*
G04 #@! TF.FilePolarity,Positive*
G04*
G01*
G75*
G36*
X1884Y1852D02*
X1695D01*
Y1784D01*
X1695Y1772D01*
X1694Y1760D01*
X1693Y1750D01*
X1692Y1740D01*
X1691Y1732D01*
X1689Y1724D01*
X1688Y1717D01*
X1686Y1711D01*
X1685Y1706D01*
X1684Y1702D01*
X1683Y1699D01*
X1682Y1696D01*
X1681Y1694D01*
X1681Y1693D01*
X1674Y1682D01*
X1667Y1671D01*
X1658Y1662D01*
X1650Y1655D01*
X1642Y1649D01*
X1635Y1645D01*
X1631Y1642D01*
X1630Y1641D01*
X1630D01*
X1615Y1634D01*
X1600Y1629D01*
X1584Y1625D01*
X1570Y1622D01*
X1558Y1621D01*
X1552D01*
X1548Y1620D01*
X1544D01*
X1541D01*
X1539D01*
X1539D01*
X1517Y1621D01*
X1498Y1624D01*
X1482Y1628D01*
X1468Y1632D01*
X1461Y1635D01*
X1456Y1637D01*
X1451Y1639D01*
X1448Y1641D01*
X1445Y1642D01*
X1443Y1644D01*
X1442Y1645D01*
X1441D01*
X1428Y1654D01*
X1417Y1664D01*
X1409Y1674D01*
X1402Y1683D01*
X1398Y1692D01*
X1394Y1699D01*
X1392Y1703D01*
X1392Y1704D01*
Y1704D01*
X1390Y1710D01*
X1389Y1716D01*
X1388Y1722D01*
X1387Y1730D01*
X1386Y1745D01*
X1385Y1762D01*
X1384Y1777D01*
Y1934D01*
X1884D01*
Y1852D01*
D02*
G37*
G36*
X1661Y1566D02*
X1681Y1564D01*
X1701Y1561D01*
X1720Y1557D01*
X1737Y1553D01*
X1752Y1549D01*
X1767Y1543D01*
X1780Y1537D01*
X1791Y1532D01*
X1802Y1527D01*
X1811Y1523D01*
X1817Y1518D01*
X1823Y1515D01*
X1828Y1512D01*
X1830Y1510D01*
X1831Y1509D01*
X1842Y1500D01*
X1851Y1489D01*
X1859Y1479D01*
X1866Y1468D01*
X1872Y1457D01*
X1877Y1447D01*
X1881Y1436D01*
X1885Y1426D01*
X1887Y1416D01*
X1889Y1407D01*
X1890Y1399D01*
X1891Y1393D01*
Y1387D01*
X1892Y1383D01*
Y1379D01*
X1891Y1367D01*
X1891Y1356D01*
X1886Y1336D01*
X1880Y1317D01*
X1876Y1309D01*
X1873Y1302D01*
X1869Y1295D01*
X1865Y1289D01*
X1862Y1284D01*
X1859Y1280D01*
X1857Y1277D01*
X1855Y1274D01*
X1854Y1273D01*
X1854Y1272D01*
X1845Y1264D01*
X1837Y1257D01*
X1818Y1244D01*
X1797Y1233D01*
X1777Y1224D01*
X1768Y1220D01*
X1759Y1217D01*
X1751Y1215D01*
X1744Y1213D01*
X1738Y1211D01*
X1734Y1210D01*
X1731Y1209D01*
X1730D01*
X1699Y1290D01*
X1719Y1294D01*
X1735Y1300D01*
X1749Y1305D01*
X1760Y1311D01*
X1769Y1316D01*
X1775Y1321D01*
X1779Y1324D01*
X1780Y1325D01*
X1789Y1333D01*
X1795Y1343D01*
X1800Y1353D01*
X1803Y1362D01*
X1804Y1369D01*
X1805Y1376D01*
X1806Y1379D01*
Y1381D01*
X1805Y1389D01*
X1804Y1396D01*
X1800Y1411D01*
X1793Y1423D01*
X1786Y1433D01*
X1779Y1442D01*
X1772Y1448D01*
X1768Y1452D01*
X1767Y1453D01*
X1766D01*
X1758Y1458D01*
X1749Y1462D01*
X1739Y1466D01*
X1729Y1469D01*
X1706Y1474D01*
X1684Y1477D01*
X1674Y1478D01*
X1664Y1479D01*
X1655Y1480D01*
X1648D01*
X1641Y1481D01*
X1637D01*
X1633D01*
X1633D01*
X1616D01*
X1601Y1479D01*
X1587Y1478D01*
X1574Y1476D01*
X1562Y1474D01*
X1551Y1472D01*
X1542Y1469D01*
X1533Y1466D01*
X1526Y1464D01*
X1519Y1461D01*
X1514Y1459D01*
X1510Y1457D01*
X1507Y1455D01*
X1504Y1454D01*
X1503Y1452D01*
X1502D01*
X1495Y1447D01*
X1489Y1441D01*
X1484Y1435D01*
X1480Y1429D01*
X1472Y1416D01*
X1468Y1404D01*
X1465Y1394D01*
X1463Y1386D01*
X1463Y1383D01*
Y1379D01*
X1463Y1367D01*
X1466Y1356D01*
X1469Y1347D01*
X1474Y1339D01*
X1477Y1333D01*
X1481Y1328D01*
X1484Y1325D01*
X1485Y1324D01*
X1494Y1316D01*
X1503Y1309D01*
X1514Y1303D01*
X1524Y1299D01*
X1533Y1296D01*
X1540Y1294D01*
X1543Y1293D01*
X1545D01*
X1546Y1292D01*
X1547D01*
X1523Y1210D01*
X1511Y1213D01*
X1500Y1217D01*
X1490Y1220D01*
X1480Y1224D01*
X1471Y1228D01*
X1463Y1232D01*
X1456Y1237D01*
X1449Y1240D01*
X1443Y1244D01*
X1438Y1248D01*
X1434Y1251D01*
X1430Y1254D01*
X1428Y1256D01*
X1426Y1257D01*
X1424Y1258D01*
Y1259D01*
X1416Y1268D01*
X1409Y1277D01*
X1402Y1287D01*
X1396Y1296D01*
X1392Y1306D01*
X1388Y1316D01*
X1382Y1334D01*
X1380Y1342D01*
X1378Y1350D01*
X1378Y1356D01*
X1377Y1362D01*
X1376Y1367D01*
Y1374D01*
X1377Y1390D01*
X1379Y1404D01*
X1382Y1418D01*
X1386Y1431D01*
X1391Y1443D01*
X1396Y1454D01*
X1402Y1464D01*
X1407Y1473D01*
X1413Y1481D01*
X1419Y1489D01*
X1424Y1495D01*
X1429Y1500D01*
X1433Y1503D01*
X1436Y1506D01*
X1438Y1508D01*
X1439Y1509D01*
X1453Y1519D01*
X1468Y1528D01*
X1484Y1535D01*
X1500Y1542D01*
X1517Y1548D01*
X1533Y1552D01*
X1550Y1556D01*
X1566Y1559D01*
X1581Y1561D01*
X1594Y1563D01*
X1607Y1565D01*
X1618Y1566D01*
X1626D01*
X1633Y1566D01*
X1637D01*
X1638D01*
X1638D01*
X1661Y1566D01*
D02*
G37*
G36*
X1884Y969D02*
X1883Y956D01*
Y944D01*
X1882Y933D01*
X1882Y923D01*
Y915D01*
X1881Y908D01*
X1880Y902D01*
X1879Y897D01*
Y893D01*
X1879Y889D01*
Y887D01*
X1878Y886D01*
Y884D01*
X1874Y871D01*
X1867Y860D01*
X1859Y849D01*
X1851Y840D01*
X1844Y832D01*
X1837Y826D01*
X1833Y823D01*
X1832Y822D01*
X1831D01*
X1817Y813D01*
X1801Y806D01*
X1786Y802D01*
X1771Y798D01*
X1758Y797D01*
X1753Y796D01*
X1748D01*
X1744Y795D01*
X1741D01*
X1740D01*
X1739D01*
X1723Y796D01*
X1708Y798D01*
X1695Y802D01*
X1684Y806D01*
X1675Y809D01*
X1668Y813D01*
X1664Y815D01*
X1663Y816D01*
X1652Y824D01*
X1642Y834D01*
X1635Y843D01*
X1629Y852D01*
X1624Y861D01*
X1621Y868D01*
X1619Y872D01*
X1618Y873D01*
Y874D01*
X1613Y864D01*
X1606Y856D01*
X1599Y849D01*
X1592Y843D01*
X1585Y838D01*
X1580Y835D01*
X1577Y832D01*
X1576Y832D01*
X1565Y826D01*
X1553Y822D01*
X1542Y819D01*
X1531Y818D01*
X1523Y816D01*
X1516Y815D01*
X1511D01*
X1511D01*
X1510D01*
X1496Y816D01*
X1482Y818D01*
X1471Y821D01*
X1460Y825D01*
X1452Y829D01*
X1446Y832D01*
X1442Y834D01*
X1440Y835D01*
X1429Y842D01*
X1420Y849D01*
X1413Y857D01*
X1407Y864D01*
X1403Y871D01*
X1399Y876D01*
X1398Y879D01*
X1397Y880D01*
X1395Y886D01*
X1392Y892D01*
X1389Y907D01*
X1387Y922D01*
X1386Y938D01*
X1385Y952D01*
X1384Y959D01*
Y1139D01*
X1884D01*
Y969D01*
D02*
G37*
G36*
X1663Y583D02*
X1686Y582D01*
X1709Y580D01*
X1729Y578D01*
X1747Y576D01*
X1763Y572D01*
X1777Y569D01*
X1791Y565D01*
X1802Y563D01*
X1811Y559D01*
X1819Y556D01*
X1825Y554D01*
X1831Y551D01*
X1834Y549D01*
X1836Y548D01*
X1837Y548D01*
X1846Y540D01*
X1855Y533D01*
X1862Y525D01*
X1868Y517D01*
X1874Y509D01*
X1879Y501D01*
X1882Y493D01*
X1885Y486D01*
X1889Y472D01*
X1891Y466D01*
X1891Y461D01*
Y457D01*
X1892Y454D01*
Y451D01*
X1891Y440D01*
X1890Y429D01*
X1887Y420D01*
X1883Y411D01*
X1874Y395D01*
X1864Y381D01*
X1854Y370D01*
X1849Y365D01*
X1845Y361D01*
X1841Y359D01*
X1838Y356D01*
X1837Y356D01*
X1836Y355D01*
X1824Y348D01*
X1811Y342D01*
X1797Y338D01*
X1781Y333D01*
X1748Y327D01*
X1715Y322D01*
X1700Y321D01*
X1685Y320D01*
X1672Y319D01*
X1661D01*
X1651Y318D01*
X1644D01*
X1641D01*
X1639D01*
X1638D01*
X1638D01*
X1612Y319D01*
X1589Y319D01*
X1567Y322D01*
X1548Y324D01*
X1529Y327D01*
X1513Y330D01*
X1499Y333D01*
X1485Y336D01*
X1474Y340D01*
X1465Y343D01*
X1457Y346D01*
X1451Y349D01*
X1446Y351D01*
X1443Y353D01*
X1440Y354D01*
X1440Y355D01*
X1429Y362D01*
X1421Y370D01*
X1413Y378D01*
X1406Y386D01*
X1401Y394D01*
X1397Y401D01*
X1393Y410D01*
X1390Y417D01*
X1386Y431D01*
X1384Y437D01*
X1383Y442D01*
X1383Y446D01*
Y452D01*
X1383Y463D01*
X1385Y473D01*
X1388Y483D01*
X1392Y492D01*
X1400Y508D01*
X1411Y522D01*
X1422Y533D01*
X1426Y537D01*
X1431Y541D01*
X1434Y544D01*
X1437Y546D01*
X1439Y547D01*
X1440Y548D01*
X1451Y554D01*
X1465Y560D01*
X1479Y565D01*
X1494Y568D01*
X1527Y575D01*
X1559Y580D01*
X1575Y581D01*
X1590Y582D01*
X1603Y582D01*
X1614Y583D01*
X1624Y584D01*
X1631D01*
X1633D01*
X1635D01*
X1636D01*
X1637D01*
X1663Y583D01*
D02*
G37*
G36*
X1884Y171D02*
X1788D01*
Y249D01*
X1884D01*
Y171D01*
D02*
G37*
G36*
X1585Y65D02*
X1574Y45D01*
X1562Y28D01*
X1550Y13D01*
X1545Y7D01*
X1539Y1D01*
X1534Y-4D01*
X1531Y-8D01*
X1527Y-12D01*
X1525Y-14D01*
X1523Y-15D01*
X1522Y-16D01*
X1884D01*
Y-95D01*
X1383D01*
Y-31D01*
X1399Y-25D01*
X1414Y-18D01*
X1427Y-10D01*
X1438Y-1D01*
X1448Y6D01*
X1455Y12D01*
X1460Y16D01*
X1460Y17D01*
X1461Y18D01*
X1473Y31D01*
X1482Y44D01*
X1491Y55D01*
X1497Y65D01*
X1502Y74D01*
X1505Y80D01*
X1507Y84D01*
X1508Y85D01*
Y86D01*
X1595D01*
X1585Y65D01*
D02*
G37*
G36*
X1884Y-307D02*
X1788D01*
Y-228D01*
X1884D01*
Y-307D01*
D02*
G37*
G36*
X1663Y-372D02*
X1686Y-372D01*
X1709Y-375D01*
X1729Y-377D01*
X1747Y-379D01*
X1763Y-383D01*
X1777Y-386D01*
X1791Y-389D01*
X1802Y-392D01*
X1811Y-396D01*
X1819Y-399D01*
X1825Y-401D01*
X1831Y-404D01*
X1834Y-406D01*
X1836Y-406D01*
X1837Y-407D01*
X1846Y-415D01*
X1855Y-422D01*
X1862Y-430D01*
X1868Y-438D01*
X1874Y-446D01*
X1879Y-454D01*
X1882Y-462D01*
X1885Y-469D01*
X1889Y-483D01*
X1891Y-489D01*
X1891Y-494D01*
Y-498D01*
X1892Y-501D01*
Y-504D01*
X1891Y-515D01*
X1890Y-525D01*
X1887Y-535D01*
X1883Y-544D01*
X1874Y-560D01*
X1864Y-574D01*
X1854Y-585D01*
X1849Y-590D01*
X1845Y-594D01*
X1841Y-596D01*
X1838Y-599D01*
X1837Y-599D01*
X1836Y-600D01*
X1824Y-607D01*
X1811Y-613D01*
X1797Y-617D01*
X1781Y-622D01*
X1748Y-628D01*
X1715Y-633D01*
X1700Y-634D01*
X1685Y-635D01*
X1672Y-636D01*
X1661D01*
X1651Y-637D01*
X1644D01*
X1641D01*
X1639D01*
X1638D01*
X1638D01*
X1612Y-636D01*
X1589Y-636D01*
X1567Y-633D01*
X1548Y-631D01*
X1529Y-628D01*
X1513Y-625D01*
X1499Y-622D01*
X1485Y-619D01*
X1474Y-615D01*
X1465Y-612D01*
X1457Y-609D01*
X1451Y-606D01*
X1446Y-604D01*
X1443Y-602D01*
X1440Y-601D01*
X1440Y-600D01*
X1429Y-593D01*
X1421Y-585D01*
X1413Y-577D01*
X1406Y-569D01*
X1401Y-561D01*
X1397Y-554D01*
X1393Y-545D01*
X1390Y-538D01*
X1386Y-524D01*
X1384Y-518D01*
X1383Y-513D01*
X1383Y-509D01*
Y-503D01*
X1383Y-492D01*
X1385Y-482D01*
X1388Y-472D01*
X1392Y-463D01*
X1400Y-447D01*
X1411Y-433D01*
X1422Y-422D01*
X1426Y-418D01*
X1431Y-414D01*
X1434Y-411D01*
X1437Y-409D01*
X1439Y-408D01*
X1440Y-407D01*
X1451Y-401D01*
X1465Y-395D01*
X1479Y-390D01*
X1494Y-387D01*
X1527Y-380D01*
X1559Y-375D01*
X1575Y-374D01*
X1590Y-373D01*
X1603Y-372D01*
X1614Y-372D01*
X1624Y-371D01*
X1631D01*
X1633D01*
X1635D01*
X1636D01*
X1637D01*
X1663Y-372D01*
D02*
G37*
G36*
X-1392Y595D02*
X-1392Y582D01*
Y570D01*
X-1393Y559D01*
X-1394Y550D01*
Y542D01*
X-1395Y534D01*
X-1395Y528D01*
X-1396Y523D01*
Y519D01*
X-1397Y516D01*
Y513D01*
X-1398Y512D01*
Y510D01*
X-1402Y498D01*
X-1409Y486D01*
X-1416Y475D01*
X-1424Y466D01*
X-1432Y459D01*
X-1438Y453D01*
X-1443Y450D01*
X-1443Y448D01*
X-1444D01*
X-1459Y440D01*
X-1475Y433D01*
X-1490Y428D01*
X-1505Y425D01*
X-1517Y423D01*
X-1523Y423D01*
X-1528D01*
X-1531Y422D01*
X-1534D01*
X-1536D01*
X-1537D01*
X-1553Y423D01*
X-1568Y425D01*
X-1580Y428D01*
X-1591Y432D01*
X-1601Y436D01*
X-1608Y440D01*
X-1611Y442D01*
X-1613Y442D01*
X-1624Y451D01*
X-1633Y460D01*
X-1641Y470D01*
X-1647Y479D01*
X-1651Y488D01*
X-1655Y494D01*
X-1656Y499D01*
X-1657Y499D01*
Y500D01*
X-1663Y491D01*
X-1670Y482D01*
X-1677Y476D01*
X-1684Y469D01*
X-1690Y465D01*
X-1696Y461D01*
X-1698Y459D01*
X-1700Y458D01*
X-1711Y453D01*
X-1723Y448D01*
X-1734Y445D01*
X-1744Y444D01*
X-1752Y442D01*
X-1760Y442D01*
X-1764D01*
X-1765D01*
X-1766D01*
X-1780Y442D01*
X-1793Y445D01*
X-1805Y448D01*
X-1815Y451D01*
X-1823Y455D01*
X-1830Y458D01*
X-1834Y460D01*
X-1835Y461D01*
X-1846Y468D01*
X-1855Y476D01*
X-1863Y484D01*
X-1868Y491D01*
X-1873Y497D01*
X-1877Y502D01*
X-1878Y505D01*
X-1879Y507D01*
X-1881Y513D01*
X-1883Y519D01*
X-1886Y533D01*
X-1888Y549D01*
X-1890Y564D01*
X-1891Y578D01*
X-1891Y585D01*
Y765D01*
X-1392D01*
Y595D01*
D02*
G37*
G36*
X-1616Y368D02*
X-1594Y366D01*
X-1574Y363D01*
X-1556Y360D01*
X-1539Y355D01*
X-1523Y350D01*
X-1509Y345D01*
X-1495Y339D01*
X-1484Y334D01*
X-1474Y329D01*
X-1465Y323D01*
X-1458Y319D01*
X-1452Y315D01*
X-1448Y312D01*
X-1446Y311D01*
X-1445Y310D01*
X-1434Y300D01*
X-1425Y289D01*
X-1417Y278D01*
X-1409Y267D01*
X-1404Y255D01*
X-1398Y243D01*
X-1395Y232D01*
X-1391Y221D01*
X-1389Y210D01*
X-1387Y201D01*
X-1386Y192D01*
X-1384Y184D01*
Y179D01*
X-1384Y173D01*
Y170D01*
X-1384Y153D01*
X-1387Y139D01*
X-1390Y124D01*
X-1393Y111D01*
X-1398Y98D01*
X-1404Y87D01*
X-1409Y77D01*
X-1415Y67D01*
X-1421Y58D01*
X-1426Y51D01*
X-1432Y45D01*
X-1436Y40D01*
X-1440Y35D01*
X-1443Y32D01*
X-1445Y31D01*
X-1446Y30D01*
X-1460Y20D01*
X-1475Y11D01*
X-1490Y3D01*
X-1506Y-4D01*
X-1523Y-10D01*
X-1539Y-15D01*
X-1554Y-19D01*
X-1570Y-22D01*
X-1585Y-24D01*
X-1598Y-26D01*
X-1611Y-28D01*
X-1621Y-28D01*
X-1630Y-29D01*
X-1636D01*
X-1640D01*
X-1642D01*
X-1664Y-28D01*
X-1685Y-27D01*
X-1705Y-24D01*
X-1724Y-20D01*
X-1741Y-17D01*
X-1756Y-11D01*
X-1770Y-7D01*
X-1783Y-2D01*
X-1795Y3D01*
X-1804Y9D01*
X-1813Y14D01*
X-1820Y17D01*
X-1826Y21D01*
X-1829Y24D01*
X-1832Y26D01*
X-1832Y26D01*
X-1844Y37D01*
X-1854Y49D01*
X-1863Y60D01*
X-1871Y72D01*
X-1877Y84D01*
X-1883Y96D01*
X-1888Y108D01*
X-1891Y119D01*
X-1894Y129D01*
X-1896Y139D01*
X-1897Y148D01*
X-1899Y155D01*
Y161D01*
X-1900Y166D01*
Y170D01*
X-1898Y192D01*
X-1895Y212D01*
X-1891Y230D01*
X-1885Y245D01*
X-1883Y251D01*
X-1880Y257D01*
X-1877Y262D01*
X-1875Y267D01*
X-1874Y269D01*
X-1872Y272D01*
X-1871Y273D01*
Y274D01*
X-1859Y289D01*
X-1846Y303D01*
X-1832Y314D01*
X-1817Y324D01*
X-1805Y332D01*
X-1799Y335D01*
X-1795Y338D01*
X-1790Y340D01*
X-1787Y341D01*
X-1786Y343D01*
X-1785D01*
X-1774Y347D01*
X-1762Y352D01*
X-1738Y357D01*
X-1713Y362D01*
X-1690Y366D01*
X-1679Y366D01*
X-1669Y367D01*
X-1660Y368D01*
X-1653D01*
X-1647Y369D01*
X-1642D01*
X-1639D01*
X-1638D01*
X-1616Y368D01*
D02*
G37*
G36*
X-1392Y-170D02*
X-1786D01*
X-1392Y-251D01*
Y-330D01*
X-1786Y-413D01*
X-1392D01*
Y-490D01*
X-1891D01*
Y-365D01*
X-1549Y-291D01*
X-1891Y-216D01*
Y-93D01*
X-1392D01*
Y-170D01*
D02*
G37*
G36*
X-1613Y-714D02*
X-1589Y-714D01*
X-1567Y-717D01*
X-1547Y-719D01*
X-1528Y-721D01*
X-1512Y-725D01*
X-1498Y-728D01*
X-1485Y-731D01*
X-1474Y-734D01*
X-1464Y-738D01*
X-1457Y-741D01*
X-1450Y-743D01*
X-1445Y-746D01*
X-1442Y-748D01*
X-1440Y-748D01*
X-1439Y-749D01*
X-1429Y-756D01*
X-1421Y-764D01*
X-1413Y-772D01*
X-1407Y-780D01*
X-1401Y-788D01*
X-1397Y-796D01*
X-1393Y-804D01*
X-1390Y-811D01*
X-1387Y-825D01*
X-1385Y-831D01*
X-1384Y-836D01*
Y-840D01*
X-1384Y-843D01*
Y-846D01*
X-1384Y-857D01*
X-1386Y-867D01*
X-1389Y-877D01*
X-1392Y-886D01*
X-1401Y-902D01*
X-1412Y-916D01*
X-1422Y-927D01*
X-1426Y-932D01*
X-1431Y-935D01*
X-1435Y-938D01*
X-1438Y-940D01*
X-1439Y-941D01*
X-1440Y-942D01*
X-1452Y-949D01*
X-1465Y-955D01*
X-1479Y-959D01*
X-1494Y-963D01*
X-1528Y-970D01*
X-1560Y-974D01*
X-1576Y-976D01*
X-1591Y-977D01*
X-1603Y-978D01*
X-1615D01*
X-1625Y-979D01*
X-1632D01*
X-1634D01*
X-1636D01*
X-1637D01*
X-1638D01*
X-1664Y-978D01*
X-1687Y-977D01*
X-1709Y-975D01*
X-1728Y-973D01*
X-1747Y-970D01*
X-1763Y-967D01*
X-1777Y-964D01*
X-1790Y-960D01*
X-1801Y-957D01*
X-1811Y-954D01*
X-1818Y-951D01*
X-1825Y-948D01*
X-1830Y-946D01*
X-1833Y-943D01*
X-1835Y-943D01*
X-1836Y-942D01*
X-1846Y-935D01*
X-1854Y-927D01*
X-1863Y-919D01*
X-1869Y-911D01*
X-1874Y-903D01*
X-1879Y-895D01*
X-1883Y-887D01*
X-1885Y-880D01*
X-1890Y-866D01*
X-1891Y-860D01*
X-1892Y-855D01*
X-1893Y-851D01*
Y-845D01*
X-1892Y-834D01*
X-1891Y-824D01*
X-1888Y-814D01*
X-1884Y-805D01*
X-1875Y-789D01*
X-1865Y-775D01*
X-1854Y-764D01*
X-1849Y-759D01*
X-1845Y-756D01*
X-1841Y-753D01*
X-1838Y-751D01*
X-1837Y-750D01*
X-1836Y-749D01*
X-1824Y-742D01*
X-1811Y-737D01*
X-1797Y-732D01*
X-1781Y-728D01*
X-1749Y-722D01*
X-1716Y-717D01*
X-1701Y-716D01*
X-1686Y-715D01*
X-1673Y-714D01*
X-1662Y-714D01*
X-1652Y-713D01*
X-1645D01*
X-1642D01*
X-1640D01*
X-1639D01*
X-1639D01*
X-1613Y-714D01*
D02*
G37*
G36*
X-1392Y-1126D02*
X-1488D01*
Y-1048D01*
X-1392D01*
Y-1126D01*
D02*
G37*
G36*
X-1690Y-1232D02*
X-1701Y-1252D01*
X-1714Y-1269D01*
X-1726Y-1283D01*
X-1731Y-1290D01*
X-1736Y-1296D01*
X-1741Y-1301D01*
X-1745Y-1305D01*
X-1749Y-1309D01*
X-1751Y-1311D01*
X-1752Y-1312D01*
X-1753Y-1313D01*
X-1392D01*
Y-1392D01*
X-1893D01*
Y-1328D01*
X-1877Y-1322D01*
X-1862Y-1314D01*
X-1849Y-1306D01*
X-1837Y-1298D01*
X-1828Y-1291D01*
X-1820Y-1285D01*
X-1816Y-1280D01*
X-1815Y-1280D01*
X-1815Y-1279D01*
X-1803Y-1266D01*
X-1793Y-1253D01*
X-1785Y-1242D01*
X-1778Y-1232D01*
X-1774Y-1223D01*
X-1770Y-1217D01*
X-1769Y-1212D01*
X-1768Y-1212D01*
Y-1211D01*
X-1681D01*
X-1690Y-1232D01*
D02*
G37*
G36*
X-1392Y-1603D02*
X-1488D01*
Y-1525D01*
X-1392D01*
Y-1603D01*
D02*
G37*
G36*
X-1613Y-1669D02*
X-1589Y-1669D01*
X-1567Y-1671D01*
X-1547Y-1674D01*
X-1528Y-1676D01*
X-1512Y-1680D01*
X-1498Y-1683D01*
X-1485Y-1686D01*
X-1474Y-1689D01*
X-1464Y-1693D01*
X-1457Y-1696D01*
X-1450Y-1698D01*
X-1445Y-1701D01*
X-1442Y-1703D01*
X-1440Y-1703D01*
X-1439Y-1704D01*
X-1429Y-1711D01*
X-1421Y-1719D01*
X-1413Y-1727D01*
X-1407Y-1735D01*
X-1401Y-1743D01*
X-1397Y-1751D01*
X-1393Y-1759D01*
X-1390Y-1766D01*
X-1387Y-1780D01*
X-1385Y-1786D01*
X-1384Y-1791D01*
Y-1795D01*
X-1384Y-1798D01*
Y-1801D01*
X-1384Y-1812D01*
X-1386Y-1822D01*
X-1389Y-1832D01*
X-1392Y-1841D01*
X-1401Y-1857D01*
X-1412Y-1871D01*
X-1422Y-1882D01*
X-1426Y-1887D01*
X-1431Y-1890D01*
X-1435Y-1893D01*
X-1438Y-1895D01*
X-1439Y-1896D01*
X-1440Y-1897D01*
X-1452Y-1904D01*
X-1465Y-1909D01*
X-1479Y-1914D01*
X-1494Y-1918D01*
X-1528Y-1925D01*
X-1560Y-1929D01*
X-1576Y-1931D01*
X-1591Y-1932D01*
X-1603Y-1933D01*
X-1615D01*
X-1625Y-1934D01*
X-1632D01*
X-1634D01*
X-1636D01*
X-1637D01*
X-1638D01*
X-1664Y-1933D01*
X-1687Y-1932D01*
X-1709Y-1930D01*
X-1728Y-1928D01*
X-1747Y-1925D01*
X-1763Y-1922D01*
X-1777Y-1919D01*
X-1790Y-1915D01*
X-1801Y-1912D01*
X-1811Y-1909D01*
X-1818Y-1906D01*
X-1825Y-1903D01*
X-1830Y-1901D01*
X-1833Y-1898D01*
X-1835Y-1898D01*
X-1836Y-1897D01*
X-1846Y-1890D01*
X-1854Y-1882D01*
X-1863Y-1874D01*
X-1869Y-1866D01*
X-1874Y-1858D01*
X-1879Y-1850D01*
X-1883Y-1842D01*
X-1885Y-1835D01*
X-1890Y-1821D01*
X-1891Y-1815D01*
X-1892Y-1810D01*
X-1893Y-1806D01*
Y-1800D01*
X-1892Y-1789D01*
X-1891Y-1779D01*
X-1888Y-1769D01*
X-1884Y-1760D01*
X-1875Y-1744D01*
X-1865Y-1730D01*
X-1854Y-1719D01*
X-1849Y-1714D01*
X-1845Y-1711D01*
X-1841Y-1708D01*
X-1838Y-1705D01*
X-1837Y-1705D01*
X-1836Y-1704D01*
X-1824Y-1697D01*
X-1811Y-1692D01*
X-1797Y-1687D01*
X-1781Y-1683D01*
X-1749Y-1677D01*
X-1716Y-1672D01*
X-1701Y-1671D01*
X-1686Y-1670D01*
X-1673Y-1669D01*
X-1662Y-1669D01*
X-1652Y-1668D01*
X-1645D01*
X-1642D01*
X-1640D01*
X-1639D01*
X-1639D01*
X-1613Y-1669D01*
D02*
G37*
G36*
X315Y-1632D02*
Y-1657D01*
X314Y-1681D01*
X313Y-1702D01*
X312Y-1721D01*
X311Y-1739D01*
X309Y-1755D01*
X307Y-1768D01*
X305Y-1781D01*
X304Y-1791D01*
X302Y-1801D01*
X300Y-1808D01*
X299Y-1815D01*
X298Y-1819D01*
X297Y-1822D01*
X296Y-1824D01*
Y-1825D01*
X287Y-1843D01*
X277Y-1859D01*
X266Y-1873D01*
X255Y-1884D01*
X246Y-1893D01*
X238Y-1900D01*
X232Y-1904D01*
X231Y-1905D01*
X230D01*
X212Y-1914D01*
X191Y-1922D01*
X170Y-1926D01*
X151Y-1930D01*
X132Y-1932D01*
X125Y-1933D01*
X117D01*
X112Y-1934D01*
X104D01*
X77Y-1932D01*
X53Y-1928D01*
X31Y-1923D01*
X14Y-1916D01*
X6Y-1914D01*
X-1Y-1911D01*
X-7Y-1908D01*
X-11Y-1905D01*
X-15Y-1902D01*
X-18Y-1902D01*
X-19Y-1900D01*
X-19D01*
X-36Y-1886D01*
X-49Y-1871D01*
X-59Y-1855D01*
X-68Y-1841D01*
X-74Y-1828D01*
X-78Y-1818D01*
X-79Y-1815D01*
X-80Y-1812D01*
X-80Y-1810D01*
Y-1809D01*
X-83Y-1798D01*
X-85Y-1785D01*
X-87Y-1771D01*
X-89Y-1756D01*
X-91Y-1727D01*
X-93Y-1697D01*
X-93Y-1682D01*
Y-1669D01*
X-94Y-1657D01*
Y-1647D01*
Y-1639D01*
Y-1632D01*
Y-1629D01*
Y-1627D01*
Y-1299D01*
X9D01*
Y-1644D01*
Y-1661D01*
Y-1677D01*
X10Y-1691D01*
X11Y-1703D01*
Y-1714D01*
X12Y-1724D01*
X13Y-1733D01*
X14Y-1741D01*
X15Y-1747D01*
X16Y-1753D01*
X17Y-1757D01*
Y-1761D01*
X18Y-1765D01*
Y-1767D01*
X22Y-1777D01*
X27Y-1785D01*
X31Y-1792D01*
X37Y-1799D01*
X42Y-1804D01*
X45Y-1807D01*
X48Y-1809D01*
X49Y-1810D01*
X58Y-1816D01*
X67Y-1819D01*
X77Y-1822D01*
X86Y-1824D01*
X94Y-1825D01*
X101Y-1826D01*
X107D01*
X122Y-1825D01*
X136Y-1822D01*
X148Y-1818D01*
X157Y-1815D01*
X165Y-1811D01*
X171Y-1807D01*
X175Y-1804D01*
X176Y-1804D01*
X185Y-1794D01*
X191Y-1784D01*
X197Y-1774D01*
X201Y-1763D01*
X204Y-1754D01*
X206Y-1746D01*
X208Y-1742D01*
Y-1740D01*
X209Y-1734D01*
Y-1729D01*
X210Y-1714D01*
X211Y-1696D01*
Y-1680D01*
X212Y-1663D01*
Y-1656D01*
Y-1650D01*
Y-1644D01*
Y-1641D01*
Y-1638D01*
Y-1637D01*
Y-1299D01*
X315D01*
Y-1632D01*
D02*
G37*
G36*
X-166Y-1404D02*
X-319D01*
Y-1924D01*
X-423D01*
Y-1404D01*
X-574D01*
Y-1299D01*
X-166D01*
Y-1404D01*
D02*
G37*
G36*
X671Y-1290D02*
X696Y-1294D01*
X718Y-1300D01*
X738Y-1306D01*
X745Y-1310D01*
X753Y-1313D01*
X759Y-1316D01*
X765Y-1319D01*
X768Y-1321D01*
X771Y-1323D01*
X773Y-1325D01*
X774D01*
X792Y-1339D01*
X810Y-1356D01*
X824Y-1374D01*
X837Y-1391D01*
X847Y-1407D01*
X851Y-1414D01*
X853Y-1420D01*
X856Y-1425D01*
X858Y-1429D01*
X860Y-1431D01*
Y-1432D01*
X865Y-1446D01*
X871Y-1461D01*
X878Y-1491D01*
X884Y-1522D01*
X888Y-1551D01*
X889Y-1564D01*
X890Y-1577D01*
X891Y-1588D01*
Y-1597D01*
X892Y-1605D01*
Y-1611D01*
Y-1615D01*
Y-1616D01*
X891Y-1644D01*
X889Y-1670D01*
X886Y-1695D01*
X881Y-1718D01*
X876Y-1740D01*
X869Y-1759D01*
X863Y-1778D01*
X855Y-1794D01*
X849Y-1808D01*
X842Y-1821D01*
X836Y-1832D01*
X830Y-1841D01*
X826Y-1848D01*
X822Y-1853D01*
X820Y-1856D01*
X819Y-1857D01*
X806Y-1871D01*
X793Y-1882D01*
X778Y-1892D01*
X765Y-1902D01*
X750Y-1909D01*
X735Y-1915D01*
X721Y-1920D01*
X707Y-1925D01*
X694Y-1927D01*
X682Y-1930D01*
X671Y-1931D01*
X662Y-1933D01*
X655D01*
X648Y-1934D01*
X643D01*
X623Y-1933D01*
X605Y-1930D01*
X586Y-1926D01*
X569Y-1922D01*
X554Y-1915D01*
X540Y-1909D01*
X527Y-1902D01*
X515Y-1895D01*
X504Y-1888D01*
X495Y-1881D01*
X487Y-1874D01*
X481Y-1868D01*
X475Y-1864D01*
X471Y-1860D01*
X470Y-1857D01*
X469Y-1856D01*
X456Y-1839D01*
X445Y-1820D01*
X434Y-1801D01*
X426Y-1780D01*
X419Y-1760D01*
X412Y-1740D01*
X408Y-1720D01*
X404Y-1701D01*
X401Y-1682D01*
X398Y-1666D01*
X397Y-1650D01*
X396Y-1637D01*
X395Y-1626D01*
Y-1618D01*
Y-1613D01*
Y-1611D01*
X396Y-1583D01*
X398Y-1557D01*
X401Y-1532D01*
X406Y-1509D01*
X410Y-1487D01*
X417Y-1468D01*
X422Y-1450D01*
X429Y-1434D01*
X435Y-1420D01*
X442Y-1408D01*
X448Y-1397D01*
X453Y-1388D01*
X458Y-1381D01*
X461Y-1376D01*
X463Y-1374D01*
X464Y-1373D01*
X478Y-1358D01*
X492Y-1345D01*
X507Y-1334D01*
X521Y-1324D01*
X536Y-1316D01*
X551Y-1309D01*
X566Y-1303D01*
X580Y-1299D01*
X593Y-1296D01*
X605Y-1293D01*
X616Y-1291D01*
X625Y-1289D01*
X632D01*
X639Y-1289D01*
X643D01*
X671Y-1290D01*
D02*
G37*
G36*
X-477Y1309D02*
X-573D01*
Y1716D01*
X-780Y1309D01*
X-884D01*
Y1934D01*
X-788D01*
Y1516D01*
X-577Y1934D01*
X-477D01*
Y1309D01*
D02*
G37*
G36*
X-273D02*
X-376D01*
Y1934D01*
X-273D01*
Y1309D01*
D02*
G37*
%LPC*%
G36*
X1611Y1852D02*
X1468D01*
Y1794D01*
X1469Y1787D01*
Y1779D01*
X1470Y1767D01*
X1471Y1758D01*
X1472Y1752D01*
X1474Y1747D01*
X1474Y1745D01*
Y1744D01*
X1477Y1738D01*
X1480Y1733D01*
X1485Y1729D01*
X1488Y1724D01*
X1492Y1721D01*
X1495Y1719D01*
X1497Y1718D01*
X1498Y1717D01*
X1505Y1713D01*
X1512Y1710D01*
X1519Y1709D01*
X1525Y1707D01*
X1531Y1707D01*
X1536Y1706D01*
X1539D01*
X1540D01*
X1549Y1707D01*
X1557Y1707D01*
X1564Y1710D01*
X1570Y1711D01*
X1575Y1713D01*
X1579Y1716D01*
X1581Y1716D01*
X1582Y1717D01*
X1587Y1721D01*
X1593Y1726D01*
X1596Y1730D01*
X1600Y1735D01*
X1602Y1738D01*
X1604Y1741D01*
X1605Y1744D01*
Y1744D01*
X1607Y1752D01*
X1609Y1761D01*
X1610Y1771D01*
X1610Y1781D01*
X1611Y1791D01*
Y1852D01*
D02*
G37*
G36*
X1582Y1056D02*
X1468D01*
Y977D01*
X1468Y969D01*
Y962D01*
X1469Y955D01*
Y945D01*
X1470Y941D01*
Y937D01*
X1471Y933D01*
X1471Y931D01*
Y930D01*
X1473Y925D01*
X1476Y920D01*
X1482Y913D01*
X1485Y910D01*
X1487Y908D01*
X1488Y907D01*
X1489Y906D01*
X1494Y903D01*
X1500Y900D01*
X1511Y897D01*
X1516Y897D01*
X1520Y896D01*
X1523D01*
X1524D01*
X1533Y897D01*
X1541Y898D01*
X1548Y900D01*
X1553Y902D01*
X1558Y905D01*
X1561Y906D01*
X1563Y908D01*
X1564Y908D01*
X1568Y913D01*
X1573Y919D01*
X1576Y924D01*
X1578Y929D01*
X1579Y934D01*
X1580Y937D01*
X1581Y940D01*
Y944D01*
X1582Y947D01*
Y965D01*
X1582Y976D01*
Y1056D01*
D02*
G37*
G36*
X1800D02*
X1666D01*
Y971D01*
X1667Y963D01*
Y956D01*
X1668Y944D01*
X1669Y934D01*
X1670Y928D01*
X1672Y923D01*
X1672Y920D01*
Y920D01*
X1675Y914D01*
X1678Y908D01*
X1682Y903D01*
X1686Y900D01*
X1689Y897D01*
X1692Y894D01*
X1694Y893D01*
X1695Y892D01*
X1701Y888D01*
X1707Y886D01*
X1714Y884D01*
X1720Y883D01*
X1726Y882D01*
X1730Y881D01*
X1734D01*
X1735D01*
X1743Y882D01*
X1751Y883D01*
X1757Y884D01*
X1763Y886D01*
X1768Y888D01*
X1771Y890D01*
X1773Y891D01*
X1774Y891D01*
X1779Y895D01*
X1783Y900D01*
X1787Y903D01*
X1790Y907D01*
X1792Y911D01*
X1794Y914D01*
X1794Y915D01*
Y916D01*
X1795Y919D01*
X1796Y922D01*
X1797Y932D01*
X1798Y942D01*
X1799Y954D01*
X1800Y963D01*
Y1056D01*
D02*
G37*
G36*
X1656Y501D02*
X1648D01*
X1643D01*
X1639D01*
X1638D01*
X1617D01*
X1599Y500D01*
X1582Y500D01*
X1567Y499D01*
X1554Y498D01*
X1542Y497D01*
X1532Y496D01*
X1523Y495D01*
X1516Y493D01*
X1509Y492D01*
X1504Y491D01*
X1500Y490D01*
X1497Y489D01*
X1495Y489D01*
X1494Y488D01*
X1483Y483D01*
X1476Y477D01*
X1470Y470D01*
X1466Y464D01*
X1464Y459D01*
X1463Y455D01*
X1463Y452D01*
Y451D01*
X1464Y443D01*
X1468Y435D01*
X1472Y429D01*
X1478Y424D01*
X1484Y420D01*
X1488Y417D01*
X1492Y415D01*
X1494Y415D01*
X1500Y412D01*
X1508Y410D01*
X1518Y408D01*
X1529Y407D01*
X1540Y405D01*
X1553Y404D01*
X1577Y402D01*
X1589D01*
X1600Y401D01*
X1610D01*
X1619Y401D01*
X1627D01*
X1633D01*
X1636D01*
X1638D01*
X1658D01*
X1677Y401D01*
X1693Y402D01*
X1708Y403D01*
X1721Y404D01*
X1733Y405D01*
X1743Y407D01*
X1752Y407D01*
X1760Y409D01*
X1766Y410D01*
X1772Y412D01*
X1775Y412D01*
X1778Y413D01*
X1780Y414D01*
X1781Y415D01*
X1782D01*
X1792Y420D01*
X1800Y426D01*
X1805Y432D01*
X1808Y438D01*
X1811Y443D01*
X1811Y447D01*
X1812Y450D01*
Y451D01*
X1811Y459D01*
X1808Y466D01*
X1803Y473D01*
X1797Y478D01*
X1791Y483D01*
X1786Y486D01*
X1783Y487D01*
X1782Y488D01*
X1775Y490D01*
X1767Y492D01*
X1757Y494D01*
X1746Y495D01*
X1735Y497D01*
X1723Y498D01*
X1698Y500D01*
X1686D01*
X1675Y500D01*
X1665D01*
X1656Y501D01*
D02*
G37*
G36*
Y-454D02*
X1648D01*
X1643D01*
X1639D01*
X1638D01*
X1617D01*
X1599Y-455D01*
X1582Y-455D01*
X1567Y-456D01*
X1554Y-457D01*
X1542Y-458D01*
X1532Y-459D01*
X1523Y-460D01*
X1516Y-462D01*
X1509Y-463D01*
X1504Y-464D01*
X1500Y-465D01*
X1497Y-466D01*
X1495Y-466D01*
X1494Y-467D01*
X1483Y-472D01*
X1476Y-478D01*
X1470Y-485D01*
X1466Y-491D01*
X1464Y-496D01*
X1463Y-500D01*
X1463Y-503D01*
Y-504D01*
X1464Y-512D01*
X1468Y-520D01*
X1472Y-525D01*
X1478Y-531D01*
X1484Y-535D01*
X1488Y-538D01*
X1492Y-540D01*
X1494Y-540D01*
X1500Y-543D01*
X1508Y-545D01*
X1518Y-547D01*
X1529Y-548D01*
X1540Y-550D01*
X1553Y-551D01*
X1577Y-553D01*
X1589D01*
X1600Y-554D01*
X1610D01*
X1619Y-554D01*
X1627D01*
X1633D01*
X1636D01*
X1638D01*
X1658D01*
X1677Y-554D01*
X1693Y-553D01*
X1708Y-552D01*
X1721Y-551D01*
X1733Y-550D01*
X1743Y-548D01*
X1752Y-548D01*
X1760Y-546D01*
X1766Y-545D01*
X1772Y-543D01*
X1775Y-543D01*
X1778Y-542D01*
X1780Y-541D01*
X1781Y-540D01*
X1782D01*
X1792Y-535D01*
X1800Y-529D01*
X1805Y-523D01*
X1808Y-517D01*
X1811Y-512D01*
X1811Y-508D01*
X1812Y-505D01*
Y-504D01*
X1811Y-496D01*
X1808Y-489D01*
X1803Y-482D01*
X1797Y-477D01*
X1791Y-472D01*
X1786Y-469D01*
X1783Y-468D01*
X1782Y-467D01*
X1775Y-465D01*
X1767Y-463D01*
X1757Y-461D01*
X1746Y-460D01*
X1735Y-458D01*
X1723Y-457D01*
X1698Y-455D01*
X1686D01*
X1675Y-455D01*
X1665D01*
X1656Y-454D01*
D02*
G37*
G36*
X-1693Y683D02*
X-1808D01*
Y604D01*
X-1807Y595D01*
Y588D01*
X-1806Y581D01*
Y571D01*
X-1806Y567D01*
Y564D01*
X-1805Y559D01*
X-1804Y557D01*
Y556D01*
X-1803Y551D01*
X-1800Y547D01*
X-1794Y539D01*
X-1791Y536D01*
X-1789Y534D01*
X-1787Y533D01*
X-1786Y533D01*
X-1781Y529D01*
X-1775Y527D01*
X-1764Y524D01*
X-1759Y523D01*
X-1755Y522D01*
X-1752D01*
X-1752D01*
X-1743Y523D01*
X-1735Y525D01*
X-1728Y526D01*
X-1722Y528D01*
X-1718Y531D01*
X-1715Y533D01*
X-1713Y534D01*
X-1712Y535D01*
X-1707Y539D01*
X-1703Y545D01*
X-1700Y550D01*
X-1698Y556D01*
X-1696Y560D01*
X-1696Y564D01*
X-1695Y567D01*
Y570D01*
X-1694Y573D01*
Y592D01*
X-1693Y602D01*
Y683D01*
D02*
G37*
G36*
X-1476D02*
X-1610D01*
Y598D01*
X-1609Y590D01*
Y583D01*
X-1608Y570D01*
X-1607Y561D01*
X-1605Y554D01*
X-1604Y550D01*
X-1603Y547D01*
Y546D01*
X-1600Y540D01*
X-1597Y534D01*
X-1594Y530D01*
X-1590Y526D01*
X-1586Y523D01*
X-1584Y521D01*
X-1582Y519D01*
X-1581Y519D01*
X-1575Y515D01*
X-1568Y512D01*
X-1562Y510D01*
X-1555Y509D01*
X-1550Y508D01*
X-1545Y507D01*
X-1542D01*
X-1541D01*
X-1533Y508D01*
X-1525Y509D01*
X-1518Y510D01*
X-1513Y513D01*
X-1508Y515D01*
X-1505Y516D01*
X-1503Y517D01*
X-1502Y518D01*
X-1497Y522D01*
X-1492Y526D01*
X-1489Y530D01*
X-1486Y533D01*
X-1483Y537D01*
X-1482Y540D01*
X-1481Y542D01*
Y542D01*
X-1480Y545D01*
X-1480Y549D01*
X-1478Y559D01*
X-1477Y569D01*
X-1477Y580D01*
X-1476Y590D01*
Y683D01*
D02*
G37*
G36*
X-1633Y283D02*
X-1638D01*
X-1641D01*
X-1642D01*
X-1657Y282D01*
X-1672Y281D01*
X-1686Y280D01*
X-1698Y278D01*
X-1710Y275D01*
X-1721Y273D01*
X-1730Y270D01*
X-1739Y267D01*
X-1747Y264D01*
X-1753Y261D01*
X-1758Y259D01*
X-1763Y257D01*
X-1766Y255D01*
X-1769Y253D01*
X-1770Y252D01*
X-1771D01*
X-1778Y246D01*
X-1785Y239D01*
X-1790Y233D01*
X-1795Y225D01*
X-1800Y219D01*
X-1803Y212D01*
X-1808Y199D01*
X-1811Y187D01*
X-1812Y182D01*
X-1812Y178D01*
X-1813Y175D01*
Y170D01*
X-1812Y161D01*
X-1812Y152D01*
X-1809Y144D01*
X-1806Y136D01*
X-1800Y122D01*
X-1792Y110D01*
X-1784Y101D01*
X-1778Y94D01*
X-1775Y91D01*
X-1772Y90D01*
X-1772Y88D01*
X-1771D01*
X-1763Y83D01*
X-1754Y78D01*
X-1733Y70D01*
X-1713Y64D01*
X-1692Y60D01*
X-1681Y60D01*
X-1673Y58D01*
X-1664Y57D01*
X-1657D01*
X-1651Y57D01*
X-1647D01*
X-1644D01*
X-1643D01*
X-1627D01*
X-1612Y58D01*
X-1599Y60D01*
X-1585Y62D01*
X-1574Y64D01*
X-1563Y67D01*
X-1554Y70D01*
X-1545Y73D01*
X-1537Y76D01*
X-1531Y79D01*
X-1525Y82D01*
X-1520Y84D01*
X-1517Y86D01*
X-1514Y88D01*
X-1513Y88D01*
X-1512Y89D01*
X-1505Y95D01*
X-1498Y102D01*
X-1493Y108D01*
X-1488Y115D01*
X-1484Y122D01*
X-1480Y128D01*
X-1475Y142D01*
X-1472Y153D01*
X-1472Y157D01*
X-1471Y162D01*
X-1470Y165D01*
Y170D01*
X-1471Y179D01*
X-1472Y187D01*
X-1474Y195D01*
X-1477Y202D01*
X-1483Y216D01*
X-1492Y228D01*
X-1500Y238D01*
X-1506Y244D01*
X-1509Y247D01*
X-1511Y249D01*
X-1512Y250D01*
X-1513Y250D01*
X-1522Y256D01*
X-1531Y261D01*
X-1551Y269D01*
X-1573Y275D01*
X-1594Y278D01*
X-1603Y280D01*
X-1612Y281D01*
X-1620Y282D01*
X-1628D01*
X-1633Y283D01*
D02*
G37*
G36*
X-1619Y-796D02*
X-1628D01*
X-1633D01*
X-1636D01*
X-1638D01*
X-1659D01*
X-1677Y-796D01*
X-1693Y-797D01*
X-1708Y-798D01*
X-1721Y-799D01*
X-1733Y-800D01*
X-1744Y-801D01*
X-1752Y-802D01*
X-1760Y-804D01*
X-1766Y-804D01*
X-1772Y-806D01*
X-1775Y-807D01*
X-1778Y-807D01*
X-1781Y-808D01*
X-1782Y-809D01*
X-1792Y-814D01*
X-1800Y-820D01*
X-1806Y-827D01*
X-1809Y-833D01*
X-1812Y-838D01*
X-1812Y-842D01*
X-1813Y-845D01*
Y-846D01*
X-1812Y-854D01*
X-1808Y-861D01*
X-1803Y-867D01*
X-1798Y-872D01*
X-1792Y-877D01*
X-1787Y-880D01*
X-1783Y-881D01*
X-1782Y-882D01*
X-1775Y-884D01*
X-1767Y-887D01*
X-1758Y-889D01*
X-1747Y-890D01*
X-1735Y-892D01*
X-1723Y-892D01*
X-1698Y-895D01*
X-1687D01*
X-1676Y-895D01*
X-1665D01*
X-1656Y-896D01*
X-1649D01*
X-1643D01*
X-1639D01*
X-1638D01*
X-1617D01*
X-1599Y-895D01*
X-1582Y-895D01*
X-1568Y-894D01*
X-1554Y-893D01*
X-1543Y-892D01*
X-1532Y-890D01*
X-1523Y-889D01*
X-1516Y-888D01*
X-1509Y-887D01*
X-1504Y-885D01*
X-1500Y-884D01*
X-1497Y-884D01*
X-1495Y-883D01*
X-1494Y-882D01*
X-1494D01*
X-1483Y-877D01*
X-1476Y-871D01*
X-1471Y-865D01*
X-1467Y-859D01*
X-1465Y-854D01*
X-1464Y-850D01*
X-1463Y-847D01*
Y-846D01*
X-1465Y-838D01*
X-1468Y-830D01*
X-1473Y-824D01*
X-1479Y-819D01*
X-1484Y-814D01*
X-1489Y-811D01*
X-1492Y-810D01*
X-1494Y-809D01*
X-1500Y-807D01*
X-1509Y-804D01*
X-1518Y-803D01*
X-1529Y-802D01*
X-1540Y-800D01*
X-1553Y-799D01*
X-1577Y-797D01*
X-1589D01*
X-1600Y-796D01*
X-1611D01*
X-1619Y-796D01*
D02*
G37*
G36*
Y-1751D02*
X-1628D01*
X-1633D01*
X-1636D01*
X-1638D01*
X-1659D01*
X-1677Y-1751D01*
X-1693Y-1752D01*
X-1708Y-1753D01*
X-1721Y-1754D01*
X-1733Y-1755D01*
X-1744Y-1756D01*
X-1752Y-1757D01*
X-1760Y-1759D01*
X-1766Y-1759D01*
X-1772Y-1761D01*
X-1775Y-1762D01*
X-1778Y-1762D01*
X-1781Y-1763D01*
X-1782Y-1764D01*
X-1792Y-1769D01*
X-1800Y-1775D01*
X-1806Y-1782D01*
X-1809Y-1788D01*
X-1812Y-1793D01*
X-1812Y-1797D01*
X-1813Y-1800D01*
Y-1801D01*
X-1812Y-1809D01*
X-1808Y-1816D01*
X-1803Y-1822D01*
X-1798Y-1827D01*
X-1792Y-1832D01*
X-1787Y-1835D01*
X-1783Y-1836D01*
X-1782Y-1837D01*
X-1775Y-1839D01*
X-1767Y-1841D01*
X-1758Y-1844D01*
X-1747Y-1845D01*
X-1735Y-1847D01*
X-1723Y-1847D01*
X-1698Y-1850D01*
X-1687D01*
X-1676Y-1850D01*
X-1665D01*
X-1656Y-1851D01*
X-1649D01*
X-1643D01*
X-1639D01*
X-1638D01*
X-1617D01*
X-1599Y-1850D01*
X-1582Y-1850D01*
X-1568Y-1849D01*
X-1554Y-1848D01*
X-1543Y-1847D01*
X-1532Y-1845D01*
X-1523Y-1844D01*
X-1516Y-1843D01*
X-1509Y-1841D01*
X-1504Y-1840D01*
X-1500Y-1839D01*
X-1497Y-1839D01*
X-1495Y-1838D01*
X-1494Y-1837D01*
X-1494D01*
X-1483Y-1832D01*
X-1476Y-1826D01*
X-1471Y-1820D01*
X-1467Y-1814D01*
X-1465Y-1809D01*
X-1464Y-1805D01*
X-1463Y-1802D01*
Y-1801D01*
X-1465Y-1793D01*
X-1468Y-1785D01*
X-1473Y-1779D01*
X-1479Y-1773D01*
X-1484Y-1769D01*
X-1489Y-1766D01*
X-1492Y-1765D01*
X-1494Y-1764D01*
X-1500Y-1762D01*
X-1509Y-1759D01*
X-1518Y-1758D01*
X-1529Y-1756D01*
X-1540Y-1755D01*
X-1553Y-1754D01*
X-1577Y-1752D01*
X-1589D01*
X-1600Y-1751D01*
X-1611D01*
X-1619Y-1751D01*
D02*
G37*
G36*
X650Y-1397D02*
X643D01*
X632Y-1398D01*
X621Y-1399D01*
X611Y-1401D01*
X601Y-1405D01*
X583Y-1413D01*
X569Y-1423D01*
X557Y-1433D01*
X549Y-1441D01*
X545Y-1445D01*
X544Y-1448D01*
X542Y-1448D01*
Y-1449D01*
X534Y-1460D01*
X529Y-1471D01*
X519Y-1497D01*
X511Y-1522D01*
X507Y-1548D01*
X506Y-1561D01*
X504Y-1572D01*
X503Y-1583D01*
Y-1592D01*
X502Y-1599D01*
Y-1605D01*
Y-1608D01*
Y-1609D01*
Y-1630D01*
X504Y-1648D01*
X506Y-1665D01*
X508Y-1681D01*
X511Y-1696D01*
X515Y-1709D01*
X519Y-1721D01*
X522Y-1732D01*
X526Y-1742D01*
X530Y-1750D01*
X533Y-1757D01*
X536Y-1763D01*
X539Y-1767D01*
X541Y-1770D01*
X542Y-1772D01*
X543Y-1773D01*
X550Y-1782D01*
X558Y-1791D01*
X567Y-1797D01*
X575Y-1804D01*
X583Y-1808D01*
X592Y-1813D01*
X608Y-1819D01*
X622Y-1823D01*
X628Y-1824D01*
X633Y-1825D01*
X638Y-1826D01*
X643D01*
X655Y-1825D01*
X665Y-1823D01*
X675Y-1821D01*
X684Y-1817D01*
X702Y-1809D01*
X716Y-1799D01*
X729Y-1789D01*
X737Y-1780D01*
X740Y-1777D01*
X742Y-1774D01*
X743Y-1773D01*
X744Y-1772D01*
X752Y-1761D01*
X757Y-1750D01*
X767Y-1724D01*
X775Y-1697D01*
X779Y-1671D01*
X781Y-1659D01*
X783Y-1648D01*
X784Y-1638D01*
Y-1629D01*
X785Y-1621D01*
Y-1616D01*
Y-1612D01*
Y-1611D01*
X784Y-1592D01*
X783Y-1573D01*
X781Y-1556D01*
X778Y-1540D01*
X776Y-1525D01*
X773Y-1512D01*
X769Y-1500D01*
X765Y-1489D01*
X762Y-1480D01*
X758Y-1472D01*
X755Y-1465D01*
X753Y-1460D01*
X750Y-1455D01*
X748Y-1452D01*
X746Y-1450D01*
Y-1449D01*
X739Y-1440D01*
X730Y-1432D01*
X722Y-1425D01*
X713Y-1419D01*
X704Y-1413D01*
X696Y-1410D01*
X679Y-1403D01*
X666Y-1399D01*
X659Y-1399D01*
X654Y-1398D01*
X650Y-1397D01*
D02*
G37*
%LPD*%
M02*
